<svg width="24" height="24" viewBox="0 0 24 24" fill="none" xmlns="http://www.w3.org/2000/svg">
<path d="M9 16.5H2.8125C2.66332 16.5 2.52024 16.4407 2.41475 16.3352C2.30926 16.2298 2.25 16.0867 2.25 15.9375V9.75C2.25 7.95979 2.96116 6.2429 4.22703 4.97703C5.4929 3.71116 7.20979 3 9 3V3C10.7902 3 12.5071 3.71116 13.773 4.97703C15.0388 6.2429 15.75 7.95979 15.75 9.75V9.75C15.75 11.5402 15.0388 13.2571 13.773 14.523C12.5071 15.7888 10.7902 16.5 9 16.5V16.5Z" stroke="white" stroke-opacity="0.7" stroke-width="2" stroke-linecap="round" stroke-linejoin="round"/>
<path d="M8.63416 16.4994C9.09954 17.8157 9.96163 18.9553 11.1017 19.7612C12.2417 20.5672 13.6036 20.9998 14.9998 20.9994H21.1873C21.3365 20.9994 21.4795 20.9401 21.585 20.8347C21.6905 20.7292 21.7498 20.5861 21.7498 20.4369V14.2494C21.7522 12.5217 21.0911 10.8591 19.9031 9.60473C18.715 8.35038 17.0907 7.6001 15.3654 7.50879" stroke="white" stroke-opacity="0.7" stroke-width="2" stroke-linecap="round" stroke-linejoin="round"/>
</svg>
