<svg width="243" height="157" viewBox="0 0 243 157" fill="none" xmlns="http://www.w3.org/2000/svg">
<path fill-rule="evenodd" clip-rule="evenodd" d="M89 3.46154C89 2.65435 89.6544 2 90.4615 2H105.231C106.038 2 106.692 2.65435 106.692 3.46154V4.92308H89V3.46154ZM108.692 3.46154V5.92308V28.0769V30.5385C108.692 32.4502 107.143 34 105.231 34H90.4615C88.5498 34 87 32.4502 87 30.5385V28.0769V5.92308V3.46154C87 1.54978 88.5498 0 90.4615 0H105.231C107.143 0 108.692 1.54978 108.692 3.46154ZM89 6.92308H106.692V27.0769H89V6.92308ZM89 29.0769H106.692V30.5385C106.692 31.3456 106.038 32 105.231 32H90.4615C89.6544 32 89 31.3456 89 30.5385V29.0769ZM70 105C70 123.778 54.7777 139 36 139C17.2223 139 2 123.778 2 105C2 86.2223 17.2223 71 36 71C54.7777 71 70 86.2223 70 105ZM72 105C72 124.882 55.8823 141 36 141C16.1177 141 0 124.882 0 105C0 85.1178 16.1177 69 36 69C40.8108 69 45.4013 69.9437 49.5963 71.656L77.6231 20.5194L79.3769 21.4806L51.4328 72.4664C63.5931 78.2451 72 90.6408 72 105ZM88.084 58L91.85 48.396H93.852L97.632 58H95.952L95.098 55.774H90.548L89.694 58H88.084ZM91.052 54.444H94.58L93.502 51.63C93.474 51.546 93.432 51.4293 93.376 51.28C93.32 51.1307 93.2593 50.9673 93.194 50.79C93.138 50.6127 93.0773 50.4353 93.012 50.258C92.956 50.0713 92.9047 49.9033 92.858 49.754H92.774C92.718 49.9313 92.648 50.1413 92.564 50.384C92.48 50.6267 92.396 50.86 92.312 51.084C92.2373 51.308 92.172 51.49 92.116 51.63L91.052 54.444ZM101.598 58.168C100.861 58.168 100.245 58.0327 99.7504 57.762C99.2557 57.482 98.8824 57.0573 98.6304 56.488C98.3877 55.9187 98.2664 55.1953 98.2664 54.318C98.2664 53.4407 98.3924 52.722 98.6444 52.162C98.8964 51.5927 99.2697 51.168 99.7644 50.888C100.268 50.608 100.884 50.468 101.612 50.468C102.116 50.468 102.555 50.5333 102.928 50.664C103.302 50.7853 103.619 50.972 103.88 51.224C104.142 51.4667 104.333 51.77 104.454 52.134C104.585 52.498 104.65 52.9133 104.65 53.38H103.18C103.18 52.988 103.124 52.666 103.012 52.414C102.9 52.162 102.728 51.9753 102.494 51.854C102.261 51.7233 101.958 51.658 101.584 51.658C101.192 51.658 100.861 51.7513 100.59 51.938C100.32 52.1153 100.114 52.3907 99.9744 52.764C99.8344 53.128 99.7644 53.6087 99.7644 54.206V54.444C99.7644 55.0133 99.8297 55.4893 99.9604 55.872C100.1 56.2453 100.306 56.5253 100.576 56.712C100.856 56.8893 101.211 56.978 101.64 56.978C102.014 56.978 102.312 56.9127 102.536 56.782C102.77 56.642 102.942 56.446 103.054 56.194C103.176 55.9327 103.236 55.62 103.236 55.256H104.65C104.65 55.6947 104.585 56.0913 104.454 56.446C104.333 56.8007 104.142 57.1087 103.88 57.37C103.628 57.622 103.311 57.818 102.928 57.958C102.546 58.098 102.102 58.168 101.598 58.168ZM107.958 58.168C107.538 58.168 107.206 58.0887 106.964 57.93C106.73 57.762 106.562 57.552 106.46 57.3C106.366 57.0387 106.32 56.7633 106.32 56.474V51.84H105.396V50.636H106.348L106.614 48.578H107.776V50.636H109.106V51.84H107.776V56.306C107.776 56.5207 107.822 56.684 107.916 56.796C108.009 56.908 108.163 56.964 108.378 56.964H109.106V57.944C109.012 57.9813 108.896 58.014 108.756 58.042C108.625 58.0793 108.49 58.1073 108.35 58.126C108.21 58.154 108.079 58.168 107.958 58.168ZM110.389 49.362V47.878H111.845V49.362H110.389ZM110.389 50.636H111.845V58H110.389V50.636ZM112.913 50.636H114.439L115.713 54.15C115.769 54.318 115.839 54.5373 115.923 54.808C116.007 55.0693 116.091 55.34 116.175 55.62C116.259 55.9 116.334 56.152 116.399 56.376H116.469C116.525 56.1613 116.59 55.9187 116.665 55.648C116.749 55.368 116.833 55.0927 116.917 54.822C117.001 54.5513 117.076 54.3273 117.141 54.15L118.401 50.636H119.885L117.141 58H115.643L112.913 50.636ZM122.71 58.168C122.477 58.168 122.225 58.14 121.954 58.084C121.683 58.028 121.427 57.9253 121.184 57.776C120.951 57.6267 120.759 57.4213 120.61 57.16C120.461 56.8893 120.386 56.5393 120.386 56.11C120.386 55.606 120.503 55.1907 120.736 54.864C120.969 54.5373 121.296 54.2807 121.716 54.094C122.136 53.9073 122.635 53.7767 123.214 53.702C123.802 53.6273 124.441 53.59 125.132 53.59V52.862C125.132 52.6193 125.09 52.4047 125.006 52.218C124.931 52.0313 124.787 51.8867 124.572 51.784C124.367 51.6813 124.068 51.63 123.676 51.63C123.284 51.63 122.976 51.6813 122.752 51.784C122.537 51.8773 122.383 51.9987 122.29 52.148C122.206 52.288 122.164 52.442 122.164 52.61V52.82H120.764C120.755 52.7733 120.75 52.7267 120.75 52.68V52.512C120.75 52.0733 120.871 51.7047 121.114 51.406C121.366 51.098 121.716 50.8647 122.164 50.706C122.612 50.5473 123.13 50.468 123.718 50.468C124.353 50.468 124.88 50.5613 125.3 50.748C125.729 50.9253 126.051 51.182 126.266 51.518C126.481 51.854 126.588 52.26 126.588 52.736V56.474C126.588 56.6513 126.63 56.7773 126.714 56.852C126.807 56.9267 126.915 56.964 127.036 56.964H127.54V57.944C127.428 57.9907 127.288 58.0373 127.12 58.084C126.952 58.1307 126.756 58.154 126.532 58.154C126.28 58.154 126.065 58.1073 125.888 58.014C125.72 57.93 125.58 57.8087 125.468 57.65C125.365 57.482 125.295 57.2953 125.258 57.09H125.174C125.006 57.3047 124.801 57.496 124.558 57.664C124.325 57.8227 124.054 57.944 123.746 58.028C123.438 58.1213 123.093 58.168 122.71 58.168ZM123.116 56.964C123.405 56.964 123.671 56.922 123.914 56.838C124.166 56.7447 124.381 56.6187 124.558 56.46C124.735 56.292 124.875 56.096 124.978 55.872C125.081 55.6387 125.132 55.3867 125.132 55.116V54.626C124.488 54.626 123.923 54.6633 123.438 54.738C122.953 54.8127 122.575 54.9527 122.304 55.158C122.033 55.354 121.898 55.6293 121.898 55.984C121.898 56.1987 121.945 56.3807 122.038 56.53C122.131 56.67 122.271 56.7773 122.458 56.852C122.645 56.9267 122.864 56.964 123.116 56.964ZM130.379 58.168C129.959 58.168 129.628 58.0887 129.385 57.93C129.152 57.762 128.984 57.552 128.881 57.3C128.788 57.0387 128.741 56.7633 128.741 56.474V51.84H127.817V50.636H128.769L129.035 48.578H130.197V50.636H131.527V51.84H130.197V56.306C130.197 56.5207 130.244 56.684 130.337 56.796C130.431 56.908 130.585 56.964 130.799 56.964H131.527V57.944C131.434 57.9813 131.317 58.014 131.177 58.042C131.047 58.0793 130.911 58.1073 130.771 58.126C130.631 58.154 130.501 58.168 130.379 58.168ZM135.863 58.168C135.107 58.168 134.472 58.0327 133.959 57.762C133.455 57.482 133.072 57.0573 132.811 56.488C132.55 55.9187 132.419 55.1953 132.419 54.318C132.419 53.4313 132.55 52.708 132.811 52.148C133.072 51.5787 133.46 51.1587 133.973 50.888C134.486 50.608 135.126 50.468 135.891 50.468C136.591 50.468 137.174 50.6033 137.641 50.874C138.117 51.1353 138.476 51.5367 138.719 52.078C138.962 52.6193 139.083 53.3007 139.083 54.122V54.682H133.917C133.936 55.2047 134.015 55.6433 134.155 55.998C134.295 56.3433 134.505 56.6 134.785 56.768C135.074 56.9267 135.438 57.006 135.877 57.006C136.148 57.006 136.39 56.9733 136.605 56.908C136.82 56.8333 137.002 56.7307 137.151 56.6C137.3 56.46 137.417 56.2967 137.501 56.11C137.585 55.914 137.627 55.6947 137.627 55.452H139.055C139.055 55.8907 138.98 56.278 138.831 56.614C138.682 56.95 138.462 57.2347 138.173 57.468C137.893 57.692 137.557 57.8647 137.165 57.986C136.773 58.1073 136.339 58.168 135.863 58.168ZM133.945 53.618H137.557C137.557 53.254 137.515 52.9507 137.431 52.708C137.356 52.456 137.244 52.2507 137.095 52.092C136.946 51.9333 136.768 51.8213 136.563 51.756C136.358 51.6813 136.124 51.644 135.863 51.644C135.471 51.644 135.135 51.714 134.855 51.854C134.584 51.994 134.374 52.2133 134.225 52.512C134.076 52.8013 133.982 53.17 133.945 53.618ZM145.268 58.168C144.848 58.168 144.517 58.0887 144.274 57.93C144.041 57.762 143.873 57.552 143.77 57.3C143.677 57.0387 143.63 56.7633 143.63 56.474V51.84H142.706V50.636H143.658L143.924 48.578H145.086V50.636H146.416V51.84H145.086V56.306C145.086 56.5207 145.133 56.684 145.226 56.796C145.319 56.908 145.473 56.964 145.688 56.964H146.416V57.944C146.323 57.9813 146.206 58.014 146.066 58.042C145.935 58.0793 145.8 58.1073 145.66 58.126C145.52 58.154 145.389 58.168 145.268 58.168ZM147.7 58V47.878H149.156V51.518H149.254C149.431 51.294 149.632 51.1073 149.856 50.958C150.08 50.7993 150.332 50.678 150.612 50.594C150.892 50.51 151.2 50.468 151.536 50.468C152.002 50.468 152.413 50.552 152.768 50.72C153.122 50.8787 153.398 51.14 153.594 51.504C153.799 51.868 153.902 52.358 153.902 52.974V58H152.446V53.198C152.446 52.918 152.408 52.6847 152.334 52.498C152.268 52.3113 152.17 52.162 152.04 52.05C151.909 51.938 151.755 51.8587 151.578 51.812C151.4 51.7653 151.204 51.742 150.99 51.742C150.654 51.742 150.346 51.8213 150.066 51.98C149.795 52.1387 149.576 52.3627 149.408 52.652C149.24 52.9413 149.156 53.2867 149.156 53.688V58H147.7ZM158.777 58.168C158.021 58.168 157.386 58.0327 156.873 57.762C156.369 57.482 155.986 57.0573 155.725 56.488C155.464 55.9187 155.333 55.1953 155.333 54.318C155.333 53.4313 155.464 52.708 155.725 52.148C155.986 51.5787 156.374 51.1587 156.887 50.888C157.4 50.608 158.04 50.468 158.805 50.468C159.505 50.468 160.088 50.6033 160.555 50.874C161.031 51.1353 161.39 51.5367 161.633 52.078C161.876 52.6193 161.997 53.3007 161.997 54.122V54.682H156.831C156.85 55.2047 156.929 55.6433 157.069 55.998C157.209 56.3433 157.419 56.6 157.699 56.768C157.988 56.9267 158.352 57.006 158.791 57.006C159.062 57.006 159.304 56.9733 159.519 56.908C159.734 56.8333 159.916 56.7307 160.065 56.6C160.214 56.46 160.331 56.2967 160.415 56.11C160.499 55.914 160.541 55.6947 160.541 55.452H161.969C161.969 55.8907 161.894 56.278 161.745 56.614C161.596 56.95 161.376 57.2347 161.087 57.468C160.807 57.692 160.471 57.8647 160.079 57.986C159.687 58.1073 159.253 58.168 158.777 58.168ZM156.859 53.618H160.471C160.471 53.254 160.429 52.9507 160.345 52.708C160.27 52.456 160.158 52.2507 160.009 52.092C159.86 51.9333 159.682 51.8213 159.477 51.756C159.272 51.6813 159.038 51.644 158.777 51.644C158.385 51.644 158.049 51.714 157.769 51.854C157.498 51.994 157.288 52.2133 157.139 52.512C156.99 52.8013 156.896 53.17 156.859 53.618ZM166.544 48.396H168.056L172.438 54.416C172.494 54.472 172.555 54.5513 172.62 54.654C172.695 54.7567 172.765 54.8593 172.83 54.962C172.895 55.0647 172.942 55.1487 172.97 55.214H173.04V54.808V54.416V48.396H174.552V58H173.096L168.658 51.91L168.378 51.49C168.266 51.3127 168.182 51.1773 168.126 51.084H168.056V51.49V51.91V58H166.544V48.396ZM176.825 48.396H183.685V49.74H178.393V52.582H183.181V53.912H178.393V58H176.825V48.396ZM189.542 58.168C188.562 58.168 187.727 57.9953 187.036 57.65C186.355 57.2953 185.832 56.7493 185.468 56.012C185.104 55.2747 184.922 54.3367 184.922 53.198C184.922 51.518 185.328 50.272 186.14 49.46C186.961 48.6387 188.1 48.228 189.556 48.228C190.359 48.228 191.077 48.3633 191.712 48.634C192.356 48.9047 192.86 49.3107 193.224 49.852C193.597 50.384 193.784 51.0653 193.784 51.896H192.188C192.188 51.3827 192.081 50.9533 191.866 50.608C191.651 50.2627 191.343 50.0013 190.942 49.824C190.55 49.6467 190.093 49.558 189.57 49.558C188.917 49.558 188.361 49.6887 187.904 49.95C187.456 50.202 187.115 50.5847 186.882 51.098C186.658 51.6113 186.546 52.2647 186.546 53.058V53.366C186.546 54.1593 186.658 54.8127 186.882 55.326C187.115 55.8393 187.456 56.222 187.904 56.474C188.352 56.7167 188.907 56.838 189.57 56.838C190.111 56.838 190.583 56.754 190.984 56.586C191.385 56.4087 191.693 56.1473 191.908 55.802C192.132 55.4567 192.244 55.0273 192.244 54.514H193.784C193.784 55.3447 193.597 56.0307 193.224 56.572C192.86 57.1133 192.356 57.5147 191.712 57.776C191.077 58.0373 190.354 58.168 189.542 58.168ZM89.26 82V75.84H88.182V74.636H89.26V73.572C89.26 73.264 89.3067 72.9747 89.4 72.704C89.5027 72.4333 89.6753 72.2093 89.918 72.032C90.17 71.8547 90.5247 71.766 90.982 71.766C91.1127 71.766 91.2433 71.7753 91.374 71.794C91.514 71.8033 91.6447 71.822 91.766 71.85C91.8873 71.878 91.9947 71.9107 92.088 71.948V72.97H91.374C91.15 72.97 90.982 73.026 90.87 73.138C90.7673 73.25 90.716 73.4133 90.716 73.628V74.636H92.088V75.84H90.716V82H89.26ZM95.3496 82.168C94.6402 82.168 94.0662 81.9813 93.6276 81.608C93.1889 81.2253 92.9696 80.5767 92.9696 79.662V74.636H94.4256V79.438C94.4256 79.718 94.4582 79.9513 94.5236 80.138C94.5982 80.3247 94.7009 80.474 94.8316 80.586C94.9622 80.698 95.1162 80.7773 95.2936 80.824C95.4709 80.8707 95.6669 80.894 95.8816 80.894C96.2176 80.894 96.5209 80.8147 96.7916 80.656C97.0716 80.488 97.2956 80.2593 97.4636 79.97C97.6316 79.6713 97.7156 79.3307 97.7156 78.948V74.636H99.1716V82H97.9816L97.8556 80.95H97.7576C97.5802 81.2207 97.3702 81.4447 97.1276 81.622C96.8849 81.7993 96.6142 81.9347 96.3156 82.028C96.0262 82.1213 95.7042 82.168 95.3496 82.168ZM101.051 82V74.636H102.255L102.381 75.686H102.479C102.657 75.4153 102.867 75.1913 103.109 75.014C103.352 74.8367 103.618 74.7013 103.907 74.608C104.206 74.5147 104.533 74.468 104.887 74.468C105.354 74.468 105.765 74.552 106.119 74.72C106.474 74.8787 106.749 75.14 106.945 75.504C107.151 75.868 107.253 76.358 107.253 76.974V82H105.797V77.198C105.797 76.918 105.76 76.6847 105.685 76.498C105.62 76.3113 105.522 76.162 105.391 76.05C105.261 75.938 105.107 75.8587 104.929 75.812C104.752 75.7653 104.556 75.742 104.341 75.742C104.005 75.742 103.697 75.826 103.417 75.994C103.147 76.1527 102.927 76.3767 102.759 76.666C102.591 76.9553 102.507 77.296 102.507 77.688V82H101.051ZM112.003 82.168C111.265 82.168 110.649 82.0327 110.155 81.762C109.66 81.482 109.287 81.0573 109.035 80.488C108.792 79.9187 108.671 79.1953 108.671 78.318C108.671 77.4407 108.797 76.722 109.049 76.162C109.301 75.5927 109.674 75.168 110.169 74.888C110.673 74.608 111.289 74.468 112.017 74.468C112.521 74.468 112.959 74.5333 113.333 74.664C113.706 74.7853 114.023 74.972 114.285 75.224C114.546 75.4667 114.737 75.77 114.859 76.134C114.989 76.498 115.055 76.9133 115.055 77.38H113.585C113.585 76.988 113.529 76.666 113.417 76.414C113.305 76.162 113.132 75.9753 112.899 75.854C112.665 75.7233 112.362 75.658 111.989 75.658C111.597 75.658 111.265 75.7513 110.995 75.938C110.724 76.1153 110.519 76.3907 110.379 76.764C110.239 77.128 110.169 77.6087 110.169 78.206V78.444C110.169 79.0133 110.234 79.4893 110.365 79.872C110.505 80.2453 110.71 80.5253 110.981 80.712C111.261 80.8893 111.615 80.978 112.045 80.978C112.418 80.978 112.717 80.9127 112.941 80.782C113.174 80.642 113.347 80.446 113.459 80.194C113.58 79.9327 113.641 79.62 113.641 79.256H115.055C115.055 79.6947 114.989 80.0913 114.859 80.446C114.737 80.8007 114.546 81.1087 114.285 81.37C114.033 81.622 113.715 81.818 113.333 81.958C112.95 82.098 112.507 82.168 112.003 82.168ZM118.362 82.168C117.942 82.168 117.611 82.0887 117.368 81.93C117.135 81.762 116.967 81.552 116.864 81.3C116.771 81.0387 116.724 80.7633 116.724 80.474V75.84H115.8V74.636H116.752L117.018 72.578H118.18V74.636H119.51V75.84H118.18V80.306C118.18 80.5207 118.227 80.684 118.32 80.796C118.413 80.908 118.567 80.964 118.782 80.964H119.51V81.944C119.417 81.9813 119.3 82.014 119.16 82.042C119.029 82.0793 118.894 82.1073 118.754 82.126C118.614 82.154 118.483 82.168 118.362 82.168ZM120.793 73.362V71.878H122.249V73.362H120.793ZM120.793 74.636H122.249V82H120.793V74.636ZM124.129 74.636H125.333L125.459 75.686H125.557C125.735 75.4153 125.945 75.1913 126.187 75.014C126.43 74.8367 126.696 74.7013 126.985 74.608C127.284 74.5147 127.611 74.468 127.965 74.468C128.432 74.468 128.843 74.552 129.197 74.72C129.552 74.8787 129.827 75.14 130.023 75.504C130.229 75.868 130.331 76.358 130.331 76.974V82H128.875V77.198C128.875 76.918 128.838 76.6847 128.763 76.498C128.698 76.3113 128.6 76.162 128.469 76.05C128.339 75.938 128.185 75.8587 128.007 75.812C127.83 75.7653 127.634 75.742 127.419 75.742C127.083 75.742 126.775 75.826 126.495 75.994C126.225 76.1527 126.005 76.3767 125.837 76.666C125.669 76.9553 125.585 77.296 125.585 77.688V82H124.129V74.636ZM134.017 82.168C133.783 82.168 133.531 82.14 133.261 82.084C132.99 82.028 132.733 81.9253 132.491 81.776C132.257 81.6267 132.066 81.4213 131.917 81.16C131.767 80.8893 131.693 80.5393 131.693 80.11C131.693 79.606 131.809 79.1907 132.043 78.864C132.276 78.5373 132.603 78.2807 133.023 78.094C133.443 77.9073 133.942 77.7767 134.521 77.702C135.109 77.6273 135.748 77.59 136.439 77.59V76.862C136.439 76.6193 136.397 76.4047 136.313 76.218C136.238 76.0313 136.093 75.8867 135.879 75.784C135.673 75.6813 135.375 75.63 134.983 75.63C134.591 75.63 134.283 75.6813 134.059 75.784C133.844 75.8773 133.69 75.9987 133.597 76.148C133.513 76.288 133.471 76.442 133.471 76.61V76.82H132.071C132.061 76.7733 132.057 76.7267 132.057 76.68V76.512C132.057 76.0733 132.178 75.7047 132.421 75.406C132.673 75.098 133.023 74.8647 133.471 74.706C133.919 74.5473 134.437 74.468 135.025 74.468C135.659 74.468 136.187 74.5613 136.607 74.748C137.036 74.9253 137.358 75.182 137.573 75.518C137.787 75.854 137.895 76.26 137.895 76.736V80.474C137.895 80.6513 137.937 80.7773 138.021 80.852C138.114 80.9267 138.221 80.964 138.343 80.964H138.847V81.944C138.735 81.9907 138.595 82.0373 138.427 82.084C138.259 82.1307 138.063 82.154 137.839 82.154C137.587 82.154 137.372 82.1073 137.195 82.014C137.027 81.93 136.887 81.8087 136.775 81.65C136.672 81.482 136.602 81.2953 136.565 81.09H136.481C136.313 81.3047 136.107 81.496 135.865 81.664C135.631 81.8227 135.361 81.944 135.053 82.028C134.745 82.1213 134.399 82.168 134.017 82.168ZM134.423 80.964C134.712 80.964 134.978 80.922 135.221 80.838C135.473 80.7447 135.687 80.6187 135.865 80.46C136.042 80.292 136.182 80.096 136.285 79.872C136.387 79.6387 136.439 79.3867 136.439 79.116V78.626C135.795 78.626 135.23 78.6633 134.745 78.738C134.259 78.8127 133.881 78.9527 133.611 79.158C133.34 79.354 133.205 79.6293 133.205 79.984C133.205 80.1987 133.251 80.3807 133.345 80.53C133.438 80.67 133.578 80.7773 133.765 80.852C133.951 80.9267 134.171 80.964 134.423 80.964ZM139.852 82V71.878H141.308V82H139.852ZM143.188 73.362V71.878H144.644V73.362H143.188ZM143.188 74.636H144.644V82H143.188V74.636ZM148.358 82.168C147.938 82.168 147.607 82.0887 147.364 81.93C147.131 81.762 146.963 81.552 146.86 81.3C146.767 81.0387 146.72 80.7633 146.72 80.474V75.84H145.796V74.636H146.748L147.014 72.578H148.176V74.636H149.506V75.84H148.176V80.306C148.176 80.5207 148.223 80.684 148.316 80.796C148.409 80.908 148.563 80.964 148.778 80.964H149.506V81.944C149.413 81.9813 149.296 82.014 149.156 82.042C149.025 82.0793 148.89 82.1073 148.75 82.126C148.61 82.154 148.479 82.168 148.358 82.168ZM151.588 84.548C151.308 84.548 151.074 84.5247 150.888 84.478L150.538 84.408V83.358H151.238C151.443 83.358 151.648 83.3113 151.854 83.218C152.068 83.1247 152.26 82.9753 152.428 82.77C152.596 82.5647 152.736 82.308 152.848 82L149.978 74.636H151.504L152.932 78.304C152.997 78.472 153.067 78.682 153.142 78.934C153.226 79.186 153.305 79.4427 153.38 79.704C153.464 79.9653 153.534 80.1987 153.59 80.404H153.66C153.706 80.264 153.753 80.1053 153.8 79.928C153.856 79.7413 153.912 79.55 153.968 79.354C154.024 79.158 154.08 78.9713 154.136 78.794C154.192 78.6073 154.238 78.4487 154.276 78.318L155.466 74.636H156.95L154.458 81.72C154.318 82.112 154.164 82.4807 153.996 82.826C153.828 83.1713 153.632 83.47 153.408 83.722C153.193 83.9833 152.936 84.184 152.638 84.324C152.339 84.4733 151.989 84.548 151.588 84.548ZM164.015 82.168C163.25 82.168 162.601 82.0327 162.069 81.762C161.547 81.482 161.15 81.0573 160.879 80.488C160.618 79.9187 160.487 79.1953 160.487 78.318C160.487 77.4313 160.618 76.708 160.879 76.148C161.15 75.5787 161.547 75.1587 162.069 74.888C162.601 74.608 163.25 74.468 164.015 74.468C164.799 74.468 165.453 74.608 165.975 74.888C166.498 75.1587 166.89 75.5787 167.151 76.148C167.422 76.708 167.557 77.4313 167.557 78.318C167.557 79.1953 167.422 79.9187 167.151 80.488C166.89 81.0573 166.498 81.482 165.975 81.762C165.453 82.0327 164.799 82.168 164.015 82.168ZM164.015 80.964C164.482 80.964 164.865 80.8753 165.163 80.698C165.462 80.5113 165.681 80.2313 165.821 79.858C165.971 79.4847 166.045 79.0133 166.045 78.444V78.192C166.045 77.6227 165.971 77.1513 165.821 76.778C165.681 76.4047 165.462 76.1293 165.163 75.952C164.865 75.7653 164.482 75.672 164.015 75.672C163.558 75.672 163.18 75.7653 162.881 75.952C162.583 76.1293 162.359 76.4047 162.209 76.778C162.069 77.1513 161.999 77.6227 161.999 78.192V78.444C161.999 79.0133 162.069 79.4847 162.209 79.858C162.359 80.2313 162.583 80.5113 162.881 80.698C163.18 80.8753 163.558 80.964 164.015 80.964ZM169.042 74.636H170.246L170.372 75.686H170.47C170.647 75.4153 170.857 75.1913 171.1 75.014C171.342 74.8367 171.608 74.7013 171.898 74.608C172.196 74.5147 172.523 74.468 172.878 74.468C173.344 74.468 173.755 74.552 174.11 74.72C174.464 74.8787 174.74 75.14 174.936 75.504C175.141 75.868 175.244 76.358 175.244 76.974V82H173.788V77.198C173.788 76.918 173.75 76.6847 173.676 76.498C173.61 76.3113 173.512 76.162 173.382 76.05C173.251 75.938 173.097 75.8587 172.92 75.812C172.742 75.7653 172.546 75.742 172.332 75.742C171.996 75.742 171.688 75.826 171.408 75.994C171.137 76.1527 170.918 76.3767 170.75 76.666C170.582 76.9553 170.498 77.296 170.498 77.688V82H169.042V74.636ZM180.736 84.548C180.456 84.548 180.223 84.5247 180.036 84.478L179.686 84.408V83.358H180.386C180.591 83.358 180.797 83.3113 181.002 83.218C181.217 83.1247 181.408 82.9753 181.576 82.77C181.744 82.5647 181.884 82.308 181.996 82L179.126 74.636H180.652L182.08 78.304C182.145 78.472 182.215 78.682 182.29 78.934C182.374 79.186 182.453 79.4427 182.528 79.704C182.612 79.9653 182.682 80.1987 182.738 80.404H182.808C182.855 80.264 182.901 80.1053 182.948 79.928C183.004 79.7413 183.06 79.55 183.116 79.354C183.172 79.158 183.228 78.9713 183.284 78.794C183.34 78.6073 183.387 78.4487 183.424 78.318L184.614 74.636H186.098L183.606 81.72C183.466 82.112 183.312 82.4807 183.144 82.826C182.976 83.1713 182.78 83.47 182.556 83.722C182.341 83.9833 182.085 84.184 181.786 84.324C181.487 84.4733 181.137 84.548 180.736 84.548ZM190.265 82.168C189.5 82.168 188.851 82.0327 188.319 81.762C187.797 81.482 187.4 81.0573 187.129 80.488C186.868 79.9187 186.737 79.1953 186.737 78.318C186.737 77.4313 186.868 76.708 187.129 76.148C187.4 75.5787 187.797 75.1587 188.319 74.888C188.851 74.608 189.5 74.468 190.265 74.468C191.049 74.468 191.703 74.608 192.225 74.888C192.748 75.1587 193.14 75.5787 193.401 76.148C193.672 76.708 193.807 77.4313 193.807 78.318C193.807 79.1953 193.672 79.9187 193.401 80.488C193.14 81.0573 192.748 81.482 192.225 81.762C191.703 82.0327 191.049 82.168 190.265 82.168ZM190.265 80.964C190.732 80.964 191.115 80.8753 191.413 80.698C191.712 80.5113 191.931 80.2313 192.071 79.858C192.221 79.4847 192.295 79.0133 192.295 78.444V78.192C192.295 77.6227 192.221 77.1513 192.071 76.778C191.931 76.4047 191.712 76.1293 191.413 75.952C191.115 75.7653 190.732 75.672 190.265 75.672C189.808 75.672 189.43 75.7653 189.131 75.952C188.833 76.1293 188.609 76.4047 188.459 76.778C188.319 77.1513 188.249 77.6227 188.249 78.192V78.444C188.249 79.0133 188.319 79.4847 188.459 79.858C188.609 80.2313 188.833 80.5113 189.131 80.698C189.43 80.8753 189.808 80.964 190.265 80.964ZM197.602 82.168C196.892 82.168 196.318 81.9813 195.88 81.608C195.441 81.2253 195.222 80.5767 195.222 79.662V74.636H196.678V79.438C196.678 79.718 196.71 79.9513 196.776 80.138C196.85 80.3247 196.953 80.474 197.084 80.586C197.214 80.698 197.368 80.7773 197.546 80.824C197.723 80.8707 197.919 80.894 198.134 80.894C198.47 80.894 198.773 80.8147 199.044 80.656C199.324 80.488 199.548 80.2593 199.716 79.97C199.884 79.6713 199.968 79.3307 199.968 78.948V74.636H201.424V82H200.234L200.108 80.95H200.01C199.832 81.2207 199.622 81.4447 199.38 81.622C199.137 81.7993 198.866 81.9347 198.568 82.028C198.278 82.1213 197.956 82.168 197.602 82.168ZM203.303 74.636H204.507L204.633 75.826H204.717C204.801 75.5927 204.909 75.3733 205.039 75.168C205.179 74.9627 205.357 74.7947 205.571 74.664C205.795 74.5333 206.066 74.468 206.383 74.468C206.533 74.468 206.663 74.482 206.775 74.51C206.897 74.538 206.99 74.5613 207.055 74.58V75.952H206.565C206.267 75.952 206.001 75.9987 205.767 76.092C205.543 76.1853 205.352 76.3253 205.193 76.512C205.044 76.6893 204.932 76.9087 204.857 77.17C204.792 77.4313 204.759 77.7253 204.759 78.052V82H203.303V74.636ZM91.654 106.168C91.1407 106.168 90.688 106.112 90.296 106C89.904 105.888 89.5773 105.734 89.316 105.538C89.0547 105.342 88.854 105.109 88.714 104.838C88.5833 104.558 88.518 104.25 88.518 103.914V103.788C88.5273 103.751 88.532 103.718 88.532 103.69H89.974V103.774V103.844C89.974 104.133 90.0533 104.367 90.212 104.544C90.3707 104.712 90.5807 104.833 90.842 104.908C91.1127 104.973 91.4067 105.006 91.724 105.006C92.004 105.006 92.2607 104.973 92.494 104.908C92.7367 104.833 92.9327 104.726 93.082 104.586C93.2407 104.446 93.32 104.269 93.32 104.054C93.32 103.774 93.222 103.559 93.026 103.41C92.83 103.261 92.5733 103.144 92.256 103.06C91.9387 102.967 91.6073 102.869 91.262 102.766C90.954 102.682 90.646 102.593 90.338 102.5C90.0393 102.397 89.7687 102.267 89.526 102.108C89.2833 101.949 89.0873 101.749 88.938 101.506C88.7887 101.263 88.714 100.96 88.714 100.596C88.714 100.251 88.7887 99.9473 88.938 99.686C89.0873 99.4247 89.2927 99.2053 89.554 99.028C89.8247 98.8507 90.142 98.7153 90.506 98.622C90.8793 98.5287 91.2853 98.482 91.724 98.482C92.1813 98.482 92.5873 98.5333 92.942 98.636C93.2967 98.7293 93.5953 98.8647 93.838 99.042C94.09 99.2193 94.2813 99.434 94.412 99.686C94.5427 99.9287 94.608 100.19 94.608 100.47C94.608 100.526 94.6033 100.587 94.594 100.652V100.764H93.166V100.638C93.166 100.451 93.1147 100.283 93.012 100.134C92.9093 99.9847 92.746 99.8633 92.522 99.77C92.3073 99.6767 92.018 99.63 91.654 99.63C91.4113 99.63 91.1967 99.6533 91.01 99.7C90.8233 99.7373 90.6693 99.7933 90.548 99.868C90.4267 99.9427 90.3333 100.031 90.268 100.134C90.212 100.237 90.184 100.353 90.184 100.484C90.184 100.699 90.2587 100.867 90.408 100.988C90.5667 101.1 90.772 101.198 91.024 101.282C91.276 101.357 91.5467 101.441 91.836 101.534C92.172 101.627 92.5127 101.725 92.858 101.828C93.2033 101.921 93.5207 102.043 93.81 102.192C94.1087 102.341 94.3467 102.547 94.524 102.808C94.7107 103.069 94.804 103.419 94.804 103.858C94.804 104.259 94.7247 104.609 94.566 104.908C94.4073 105.207 94.1833 105.449 93.894 105.636C93.614 105.813 93.2827 105.944 92.9 106.028C92.5173 106.121 92.102 106.168 91.654 106.168ZM96.2798 106V98.636H97.4838L97.6098 99.686H97.7078C97.8758 99.4153 98.0671 99.1913 98.2818 99.014C98.5058 98.8367 98.7531 98.7013 99.0238 98.608C99.3038 98.5147 99.6025 98.468 99.9198 98.468C100.377 98.468 100.774 98.5613 101.11 98.748C101.455 98.9347 101.716 99.2473 101.894 99.686H101.992C102.16 99.4247 102.356 99.2053 102.58 99.028C102.804 98.8413 103.056 98.7013 103.336 98.608C103.625 98.5147 103.933 98.468 104.26 98.468C104.698 98.468 105.086 98.5473 105.422 98.706C105.758 98.8553 106.024 99.112 106.22 99.476C106.416 99.8307 106.514 100.307 106.514 100.904V106H105.058V101.17C105.058 100.89 105.025 100.661 104.96 100.484C104.894 100.297 104.806 100.153 104.694 100.05C104.582 99.938 104.446 99.8587 104.288 99.812C104.129 99.7653 103.956 99.742 103.77 99.742C103.462 99.742 103.186 99.826 102.944 99.994C102.701 100.153 102.505 100.377 102.356 100.666C102.206 100.955 102.132 101.296 102.132 101.688V106H100.676V101.17C100.676 100.89 100.643 100.661 100.578 100.484C100.512 100.297 100.424 100.153 100.312 100.05C100.2 99.938 100.064 99.8587 99.9058 99.812C99.7471 99.7653 99.5791 99.742 99.4018 99.742C99.0938 99.742 98.8138 99.826 98.5618 99.994C98.3098 100.153 98.1091 100.377 97.9598 100.666C97.8105 100.955 97.7358 101.296 97.7358 101.688V106H96.2798ZM110.187 106.168C109.953 106.168 109.701 106.14 109.431 106.084C109.16 106.028 108.903 105.925 108.661 105.776C108.427 105.627 108.236 105.421 108.087 105.16C107.937 104.889 107.863 104.539 107.863 104.11C107.863 103.606 107.979 103.191 108.213 102.864C108.446 102.537 108.773 102.281 109.193 102.094C109.613 101.907 110.112 101.777 110.691 101.702C111.279 101.627 111.918 101.59 112.609 101.59V100.862C112.609 100.619 112.567 100.405 112.483 100.218C112.408 100.031 112.263 99.8867 112.049 99.784C111.843 99.6813 111.545 99.63 111.153 99.63C110.761 99.63 110.453 99.6813 110.229 99.784C110.014 99.8773 109.86 99.9987 109.767 100.148C109.683 100.288 109.641 100.442 109.641 100.61V100.82H108.241C108.231 100.773 108.227 100.727 108.227 100.68V100.512C108.227 100.073 108.348 99.7047 108.591 99.406C108.843 99.098 109.193 98.8647 109.641 98.706C110.089 98.5473 110.607 98.468 111.195 98.468C111.829 98.468 112.357 98.5613 112.777 98.748C113.206 98.9253 113.528 99.182 113.743 99.518C113.957 99.854 114.065 100.26 114.065 100.736V104.474C114.065 104.651 114.107 104.777 114.191 104.852C114.284 104.927 114.391 104.964 114.513 104.964H115.017V105.944C114.905 105.991 114.765 106.037 114.597 106.084C114.429 106.131 114.233 106.154 114.009 106.154C113.757 106.154 113.542 106.107 113.365 106.014C113.197 105.93 113.057 105.809 112.945 105.65C112.842 105.482 112.772 105.295 112.735 105.09H112.651C112.483 105.305 112.277 105.496 112.035 105.664C111.801 105.823 111.531 105.944 111.223 106.028C110.915 106.121 110.569 106.168 110.187 106.168ZM110.593 104.964C110.882 104.964 111.148 104.922 111.391 104.838C111.643 104.745 111.857 104.619 112.035 104.46C112.212 104.292 112.352 104.096 112.455 103.872C112.557 103.639 112.609 103.387 112.609 103.116V102.626C111.965 102.626 111.4 102.663 110.915 102.738C110.429 102.813 110.051 102.953 109.781 103.158C109.51 103.354 109.375 103.629 109.375 103.984C109.375 104.199 109.421 104.381 109.515 104.53C109.608 104.67 109.748 104.777 109.935 104.852C110.121 104.927 110.341 104.964 110.593 104.964ZM116.022 106V98.636H117.226L117.352 99.826H117.436C117.52 99.5927 117.627 99.3733 117.758 99.168C117.898 98.9627 118.075 98.7947 118.29 98.664C118.514 98.5333 118.785 98.468 119.102 98.468C119.251 98.468 119.382 98.482 119.494 98.51C119.615 98.538 119.709 98.5613 119.774 98.58V99.952H119.284C118.985 99.952 118.719 99.9987 118.486 100.092C118.262 100.185 118.071 100.325 117.912 100.512C117.763 100.689 117.651 100.909 117.576 101.17C117.511 101.431 117.478 101.725 117.478 102.052V106H116.022ZM122.696 106.168C122.276 106.168 121.944 106.089 121.702 105.93C121.468 105.762 121.3 105.552 121.198 105.3C121.104 105.039 121.058 104.763 121.058 104.474V99.84H120.134V98.636H121.086L121.352 96.578H122.514V98.636H123.844V99.84H122.514V104.306C122.514 104.521 122.56 104.684 122.654 104.796C122.747 104.908 122.901 104.964 123.116 104.964H123.844V105.944C123.75 105.981 123.634 106.014 123.494 106.042C123.363 106.079 123.228 106.107 123.088 106.126C122.948 106.154 122.817 106.168 122.696 106.168ZM125.127 108.422V98.636H126.317L126.443 99.644H126.541C126.793 99.252 127.115 98.958 127.507 98.762C127.899 98.566 128.338 98.468 128.823 98.468C129.43 98.468 129.948 98.6033 130.377 98.874C130.816 99.1447 131.152 99.5647 131.385 100.134C131.619 100.703 131.735 101.441 131.735 102.346C131.735 103.223 131.614 103.947 131.371 104.516C131.138 105.076 130.807 105.491 130.377 105.762C129.948 106.033 129.453 106.168 128.893 106.168C128.567 106.168 128.263 106.131 127.983 106.056C127.703 105.981 127.451 105.865 127.227 105.706C127.013 105.547 126.826 105.347 126.667 105.104H126.583V108.422H125.127ZM128.389 104.908C128.828 104.908 129.183 104.824 129.453 104.656C129.724 104.479 129.92 104.208 130.041 103.844C130.172 103.48 130.237 103.018 130.237 102.458V102.206C130.237 101.618 130.172 101.142 130.041 100.778C129.911 100.414 129.71 100.148 129.439 99.98C129.178 99.812 128.837 99.728 128.417 99.728C127.988 99.728 127.638 99.826 127.367 100.022C127.097 100.209 126.896 100.489 126.765 100.862C126.644 101.235 126.583 101.688 126.583 102.22V102.416C126.583 102.855 126.625 103.233 126.709 103.55C126.793 103.867 126.915 104.129 127.073 104.334C127.232 104.53 127.423 104.675 127.647 104.768C127.871 104.861 128.119 104.908 128.389 104.908ZM133.235 106V95.878H134.691V99.518H134.789C134.966 99.294 135.167 99.1073 135.391 98.958C135.615 98.7993 135.867 98.678 136.147 98.594C136.427 98.51 136.735 98.468 137.071 98.468C137.538 98.468 137.948 98.552 138.303 98.72C138.658 98.8787 138.933 99.14 139.129 99.504C139.334 99.868 139.437 100.358 139.437 100.974V106H137.981V101.198C137.981 100.918 137.944 100.685 137.869 100.498C137.804 100.311 137.706 100.162 137.575 100.05C137.444 99.938 137.29 99.8587 137.113 99.812C136.936 99.7653 136.74 99.742 136.525 99.742C136.189 99.742 135.881 99.8213 135.601 99.98C135.33 100.139 135.111 100.363 134.943 100.652C134.775 100.941 134.691 101.287 134.691 101.688V106H133.235ZM144.396 106.168C143.631 106.168 142.982 106.033 142.45 105.762C141.928 105.482 141.531 105.057 141.26 104.488C140.999 103.919 140.868 103.195 140.868 102.318C140.868 101.431 140.999 100.708 141.26 100.148C141.531 99.5787 141.928 99.1587 142.45 98.888C142.982 98.608 143.631 98.468 144.396 98.468C145.18 98.468 145.834 98.608 146.356 98.888C146.879 99.1587 147.271 99.5787 147.532 100.148C147.803 100.708 147.938 101.431 147.938 102.318C147.938 103.195 147.803 103.919 147.532 104.488C147.271 105.057 146.879 105.482 146.356 105.762C145.834 106.033 145.18 106.168 144.396 106.168ZM144.396 104.964C144.863 104.964 145.246 104.875 145.544 104.698C145.843 104.511 146.062 104.231 146.202 103.858C146.352 103.485 146.426 103.013 146.426 102.444V102.192C146.426 101.623 146.352 101.151 146.202 100.778C146.062 100.405 145.843 100.129 145.544 99.952C145.246 99.7653 144.863 99.672 144.396 99.672C143.939 99.672 143.561 99.7653 143.262 99.952C142.964 100.129 142.74 100.405 142.59 100.778C142.45 101.151 142.38 101.623 142.38 102.192V102.444C142.38 103.013 142.45 103.485 142.59 103.858C142.74 104.231 142.964 104.511 143.262 104.698C143.561 104.875 143.939 104.964 144.396 104.964ZM149.422 98.636H150.626L150.752 99.686H150.85C151.028 99.4153 151.238 99.1913 151.48 99.014C151.723 98.8367 151.989 98.7013 152.278 98.608C152.577 98.5147 152.904 98.468 153.258 98.468C153.725 98.468 154.136 98.552 154.49 98.72C154.845 98.8787 155.12 99.14 155.316 99.504C155.522 99.868 155.624 100.358 155.624 100.974V106H154.168V101.198C154.168 100.918 154.131 100.685 154.056 100.498C153.991 100.311 153.893 100.162 153.762 100.05C153.632 99.938 153.478 99.8587 153.3 99.812C153.123 99.7653 152.927 99.742 152.712 99.742C152.376 99.742 152.068 99.826 151.788 99.994C151.518 100.153 151.298 100.377 151.13 100.666C150.962 100.955 150.878 101.296 150.878 101.688V106H149.422V98.636ZM160.5 106.168C159.744 106.168 159.109 106.033 158.596 105.762C158.092 105.482 157.709 105.057 157.448 104.488C157.186 103.919 157.056 103.195 157.056 102.318C157.056 101.431 157.186 100.708 157.448 100.148C157.709 99.5787 158.096 99.1587 158.61 98.888C159.123 98.608 159.762 98.468 160.528 98.468C161.228 98.468 161.811 98.6033 162.278 98.874C162.754 99.1353 163.113 99.5367 163.356 100.078C163.598 100.619 163.72 101.301 163.72 102.122V102.682H158.554C158.572 103.205 158.652 103.643 158.792 103.998C158.932 104.343 159.142 104.6 159.422 104.768C159.711 104.927 160.075 105.006 160.514 105.006C160.784 105.006 161.027 104.973 161.242 104.908C161.456 104.833 161.638 104.731 161.788 104.6C161.937 104.46 162.054 104.297 162.138 104.11C162.222 103.914 162.264 103.695 162.264 103.452H163.692C163.692 103.891 163.617 104.278 163.468 104.614C163.318 104.95 163.099 105.235 162.81 105.468C162.53 105.692 162.194 105.865 161.802 105.986C161.41 106.107 160.976 106.168 160.5 106.168ZM158.582 101.618H162.194C162.194 101.254 162.152 100.951 162.068 100.708C161.993 100.456 161.881 100.251 161.732 100.092C161.582 99.9333 161.405 99.8213 161.2 99.756C160.994 99.6813 160.761 99.644 160.5 99.644C160.108 99.644 159.772 99.714 159.492 99.854C159.221 99.994 159.011 100.213 158.862 100.512C158.712 100.801 158.619 101.17 158.582 101.618ZM171.557 106.168C170.829 106.168 170.185 106.061 169.625 105.846C169.074 105.622 168.64 105.305 168.323 104.894C168.005 104.483 167.847 103.993 167.847 103.424C167.847 102.771 168.015 102.253 168.351 101.87C168.696 101.487 169.125 101.221 169.639 101.072V101.016C169.191 100.811 168.817 100.545 168.519 100.218C168.22 99.8913 168.071 99.4387 168.071 98.86C168.071 98.2907 168.22 97.81 168.519 97.418C168.827 97.026 169.251 96.732 169.793 96.536C170.343 96.3307 170.983 96.228 171.711 96.228C172.411 96.228 173.027 96.3353 173.559 96.55C174.1 96.7647 174.52 97.0727 174.819 97.474C175.127 97.866 175.281 98.328 175.281 98.86V99.154H173.825V98.972C173.815 98.6173 173.722 98.328 173.545 98.104C173.367 97.88 173.12 97.7167 172.803 97.614C172.485 97.502 172.112 97.446 171.683 97.446C171.384 97.446 171.104 97.4787 170.843 97.544C170.581 97.6 170.353 97.6933 170.157 97.824C169.97 97.9453 169.825 98.104 169.723 98.3C169.62 98.496 169.569 98.7247 169.569 98.986C169.569 99.3313 169.653 99.6207 169.821 99.854C169.989 100.078 170.213 100.246 170.493 100.358C170.773 100.47 171.071 100.526 171.389 100.526H172.299V101.716H171.431C171.076 101.716 170.74 101.763 170.423 101.856C170.105 101.94 169.849 102.099 169.653 102.332C169.457 102.556 169.359 102.878 169.359 103.298C169.359 103.69 169.452 104.007 169.639 104.25C169.825 104.493 170.087 104.67 170.423 104.782C170.768 104.894 171.169 104.95 171.627 104.95C172.121 104.95 172.527 104.889 172.845 104.768C173.171 104.647 173.414 104.46 173.573 104.208C173.741 103.956 173.825 103.648 173.825 103.284V100.526H176.513V101.73H175.281V103.242C175.281 103.849 175.141 104.371 174.861 104.81C174.581 105.249 174.165 105.585 173.615 105.818C173.064 106.051 172.378 106.168 171.557 106.168ZM183.597 106.168C183.084 106.168 182.631 106.112 182.239 106C181.847 105.888 181.521 105.734 181.259 105.538C180.998 105.342 180.797 105.109 180.657 104.838C180.527 104.558 180.461 104.25 180.461 103.914V103.788C180.465 103.775 180.467 103.763 180.469 103.751C180.473 103.729 180.475 103.708 180.475 103.69H181.917V103.774V103.844C181.917 104.133 181.997 104.367 182.155 104.544C182.314 104.712 182.524 104.833 182.785 104.908C183.056 104.973 183.35 105.006 183.667 105.006C183.947 105.006 184.204 104.973 184.437 104.908C184.68 104.833 184.876 104.726 185.025 104.586C185.184 104.446 185.263 104.269 185.263 104.054C185.263 103.774 185.165 103.559 184.969 103.41C184.773 103.261 184.517 103.144 184.199 103.06C183.882 102.967 183.551 102.869 183.205 102.766C182.897 102.682 182.589 102.593 182.281 102.5C181.983 102.397 181.712 102.267 181.469 102.108C181.227 101.949 181.031 101.749 180.881 101.506C180.732 101.263 180.657 100.96 180.657 100.596C180.657 100.251 180.732 99.9473 180.881 99.686C181.031 99.4247 181.236 99.2053 181.497 99.028C181.768 98.8507 182.085 98.7153 182.449 98.622C182.823 98.5287 183.229 98.482 183.667 98.482C184.125 98.482 184.531 98.5333 184.885 98.636C185.24 98.7293 185.539 98.8647 185.781 99.042C186.033 99.2193 186.225 99.434 186.355 99.686C186.486 99.9287 186.551 100.19 186.551 100.47C186.551 100.526 186.547 100.587 186.537 100.652V100.764H185.109V100.638C185.109 100.451 185.058 100.283 184.955 100.134C184.853 99.9847 184.689 99.8633 184.465 99.77C184.251 99.6767 183.961 99.63 183.597 99.63C183.355 99.63 183.14 99.6533 182.953 99.7C182.767 99.7373 182.613 99.7933 182.491 99.868C182.37 99.9427 182.277 100.031 182.211 100.134C182.155 100.237 182.127 100.353 182.127 100.484C182.127 100.699 182.202 100.867 182.351 100.988C182.51 101.1 182.715 101.198 182.967 101.282C183.219 101.357 183.49 101.441 183.779 101.534C184.115 101.627 184.456 101.725 184.801 101.828C185.147 101.921 185.464 102.043 185.753 102.192C186.052 102.341 186.29 102.547 186.467 102.808C186.654 103.069 186.747 103.419 186.747 103.858C186.747 104.259 186.668 104.609 186.509 104.908C186.351 105.207 186.127 105.449 185.837 105.636C185.557 105.813 185.226 105.944 184.843 106.028C184.461 106.121 184.045 106.168 183.597 106.168ZM191.149 106.168C190.412 106.168 189.796 106.033 189.301 105.762C188.806 105.482 188.433 105.057 188.181 104.488C187.938 103.919 187.817 103.195 187.817 102.318C187.817 101.441 187.943 100.722 188.195 100.162C188.447 99.5927 188.82 99.168 189.315 98.888C189.819 98.608 190.435 98.468 191.163 98.468C191.667 98.468 192.106 98.5333 192.479 98.664C192.852 98.7853 193.17 98.972 193.431 99.224C193.692 99.4667 193.884 99.77 194.005 100.134C194.136 100.498 194.201 100.913 194.201 101.38H192.731C192.731 100.988 192.675 100.666 192.563 100.414C192.451 100.162 192.278 99.9753 192.045 99.854C191.812 99.7233 191.508 99.658 191.135 99.658C190.743 99.658 190.412 99.7513 190.141 99.938C189.87 100.115 189.665 100.391 189.525 100.764C189.385 101.128 189.315 101.609 189.315 102.206V102.444C189.315 103.013 189.38 103.489 189.511 103.872C189.651 104.245 189.856 104.525 190.127 104.712C190.407 104.889 190.762 104.978 191.191 104.978C191.564 104.978 191.863 104.913 192.087 104.782C192.32 104.642 192.493 104.446 192.605 104.194C192.726 103.933 192.787 103.62 192.787 103.256H194.201C194.201 103.695 194.136 104.091 194.005 104.446C193.884 104.801 193.692 105.109 193.431 105.37C193.179 105.622 192.862 105.818 192.479 105.958C192.096 106.098 191.653 106.168 191.149 106.168ZM197.536 106.168C197.303 106.168 197.051 106.14 196.78 106.084C196.51 106.028 196.253 105.925 196.01 105.776C195.777 105.627 195.586 105.421 195.436 105.16C195.287 104.889 195.212 104.539 195.212 104.11C195.212 103.606 195.329 103.191 195.562 102.864C195.796 102.537 196.122 102.281 196.542 102.094C196.962 101.907 197.462 101.777 198.04 101.702C198.628 101.627 199.268 101.59 199.958 101.59V100.862C199.958 100.619 199.916 100.405 199.832 100.218C199.758 100.031 199.613 99.8867 199.398 99.784C199.193 99.6813 198.894 99.63 198.502 99.63C198.11 99.63 197.802 99.6813 197.578 99.784C197.364 99.8773 197.21 99.9987 197.116 100.148C197.032 100.288 196.99 100.442 196.99 100.61V100.82H195.59C195.581 100.773 195.576 100.727 195.576 100.68V100.512C195.576 100.073 195.698 99.7047 195.94 99.406C196.192 99.098 196.542 98.8647 196.99 98.706C197.438 98.5473 197.956 98.468 198.544 98.468C199.179 98.468 199.706 98.5613 200.126 98.748C200.556 98.9253 200.878 99.182 201.092 99.518C201.307 99.854 201.414 100.26 201.414 100.736V104.474C201.414 104.651 201.456 104.777 201.54 104.852C201.634 104.927 201.741 104.964 201.862 104.964H202.366V105.944C202.254 105.991 202.114 106.037 201.946 106.084C201.778 106.131 201.582 106.154 201.358 106.154C201.106 106.154 200.892 106.107 200.714 106.014C200.546 105.93 200.406 105.809 200.294 105.65C200.192 105.482 200.122 105.295 200.084 105.09H200C199.832 105.305 199.627 105.496 199.384 105.664C199.151 105.823 198.88 105.944 198.572 106.028C198.264 106.121 197.919 106.168 197.536 106.168ZM197.942 104.964C198.232 104.964 198.498 104.922 198.74 104.838C198.992 104.745 199.207 104.619 199.384 104.46C199.562 104.292 199.702 104.096 199.804 103.872C199.907 103.639 199.958 103.387 199.958 103.116V102.626C199.314 102.626 198.75 102.663 198.264 102.738C197.779 102.813 197.401 102.953 197.13 103.158C196.86 103.354 196.724 103.629 196.724 103.984C196.724 104.199 196.771 104.381 196.864 104.53C196.958 104.67 197.098 104.777 197.284 104.852C197.471 104.927 197.69 104.964 197.942 104.964ZM203.372 98.636H204.576L204.702 99.686H204.8C204.977 99.4153 205.187 99.1913 205.43 99.014C205.672 98.8367 205.938 98.7013 206.228 98.608C206.526 98.5147 206.853 98.468 207.208 98.468C207.674 98.468 208.085 98.552 208.44 98.72C208.794 98.8787 209.07 99.14 209.266 99.504C209.471 99.868 209.574 100.358 209.574 100.974V106H208.118V101.198C208.118 100.918 208.08 100.685 208.006 100.498C207.94 100.311 207.842 100.162 207.712 100.05C207.581 99.938 207.427 99.8587 207.25 99.812C207.072 99.7653 206.876 99.742 206.662 99.742C206.326 99.742 206.018 99.826 205.738 99.994C205.467 100.153 205.248 100.377 205.08 100.666C204.912 100.955 204.828 101.296 204.828 101.688V106H203.372V98.636ZM216.102 106.168C215.682 106.168 215.351 106.089 215.108 105.93C214.875 105.762 214.707 105.552 214.604 105.3C214.511 105.039 214.464 104.763 214.464 104.474V99.84H213.54V98.636H214.492L214.758 96.578H215.92V98.636H217.25V99.84H215.92V104.306C215.92 104.521 215.967 104.684 216.06 104.796C216.153 104.908 216.307 104.964 216.522 104.964H217.25V105.944C217.157 105.981 217.04 106.014 216.9 106.042C216.769 106.079 216.634 106.107 216.494 106.126C216.354 106.154 216.223 106.168 216.102 106.168ZM218.534 106V95.878H219.99V99.518H220.088C220.265 99.294 220.466 99.1073 220.69 98.958C220.914 98.7993 221.166 98.678 221.446 98.594C221.726 98.51 222.034 98.468 222.37 98.468C222.836 98.468 223.247 98.552 223.602 98.72C223.956 98.8787 224.232 99.14 224.428 99.504C224.633 99.868 224.736 100.358 224.736 100.974V106H223.28V101.198C223.28 100.918 223.242 100.685 223.168 100.498C223.102 100.311 223.004 100.162 222.874 100.05C222.743 99.938 222.589 99.8587 222.412 99.812C222.234 99.7653 222.038 99.742 221.824 99.742C221.488 99.742 221.18 99.8213 220.9 99.98C220.629 100.139 220.41 100.363 220.242 100.652C220.074 100.941 219.99 101.287 219.99 101.688V106H218.534ZM229.611 106.168C228.855 106.168 228.22 106.033 227.707 105.762C227.203 105.482 226.82 105.057 226.559 104.488C226.298 103.919 226.167 103.195 226.167 102.318C226.167 101.431 226.298 100.708 226.559 100.148C226.82 99.5787 227.208 99.1587 227.721 98.888C228.234 98.608 228.874 98.468 229.639 98.468C230.339 98.468 230.922 98.6033 231.389 98.874C231.865 99.1353 232.224 99.5367 232.467 100.078C232.71 100.619 232.831 101.301 232.831 102.122V102.682H227.665C227.684 103.205 227.763 103.643 227.903 103.998C228.043 104.343 228.253 104.6 228.533 104.768C228.822 104.927 229.186 105.006 229.625 105.006C229.896 105.006 230.138 104.973 230.353 104.908C230.568 104.833 230.75 104.731 230.899 104.6C231.048 104.46 231.165 104.297 231.249 104.11C231.333 103.914 231.375 103.695 231.375 103.452H232.803C232.803 103.891 232.728 104.278 232.579 104.614C232.43 104.95 232.21 105.235 231.921 105.468C231.641 105.692 231.305 105.865 230.913 105.986C230.521 106.107 230.087 106.168 229.611 106.168ZM227.693 101.618H231.305C231.305 101.254 231.263 100.951 231.179 100.708C231.104 100.456 230.992 100.251 230.843 100.092C230.694 99.9333 230.516 99.8213 230.311 99.756C230.106 99.6813 229.872 99.644 229.611 99.644C229.219 99.644 228.883 99.714 228.603 99.854C228.332 99.994 228.122 100.213 227.973 100.512C227.824 100.801 227.73 101.17 227.693 101.618ZM89.134 130V120.396H90.646L95.028 126.416C95.084 126.472 95.1447 126.551 95.21 126.654C95.2847 126.757 95.3547 126.859 95.42 126.962C95.4853 127.065 95.532 127.149 95.56 127.214H95.63V126.808V126.416V120.396H97.142V130H95.686L91.248 123.91L90.968 123.49C90.856 123.313 90.772 123.177 90.716 123.084H90.646V123.49V123.91V130H89.134ZM99.4153 130V120.396H106.275V121.74H100.983V124.582H105.771V125.912H100.983V130H99.4153ZM112.132 130.168C111.152 130.168 110.317 129.995 109.626 129.65C108.945 129.295 108.422 128.749 108.058 128.012C107.694 127.275 107.512 126.337 107.512 125.198C107.512 123.518 107.918 122.272 108.73 121.46C109.551 120.639 110.69 120.228 112.146 120.228C112.949 120.228 113.667 120.363 114.302 120.634C114.946 120.905 115.45 121.311 115.814 121.852C116.187 122.384 116.374 123.065 116.374 123.896H114.778C114.778 123.383 114.671 122.953 114.456 122.608C114.241 122.263 113.933 122.001 113.532 121.824C113.14 121.647 112.683 121.558 112.16 121.558C111.507 121.558 110.951 121.689 110.494 121.95C110.046 122.202 109.705 122.585 109.472 123.098C109.248 123.611 109.136 124.265 109.136 125.058V125.366C109.136 126.159 109.248 126.813 109.472 127.326C109.705 127.839 110.046 128.222 110.494 128.474C110.942 128.717 111.497 128.838 112.16 128.838C112.701 128.838 113.173 128.754 113.574 128.586C113.975 128.409 114.283 128.147 114.498 127.802C114.722 127.457 114.834 127.027 114.834 126.514H116.374C116.374 127.345 116.187 128.031 115.814 128.572C115.45 129.113 114.946 129.515 114.302 129.776C113.667 130.037 112.944 130.168 112.132 130.168ZM123.719 130.168C122.982 130.168 122.366 130.033 121.871 129.762C121.377 129.482 121.003 129.057 120.751 128.488C120.509 127.919 120.387 127.195 120.387 126.318C120.387 125.441 120.513 124.722 120.765 124.162C121.017 123.593 121.391 123.168 121.885 122.888C122.389 122.608 123.005 122.468 123.733 122.468C124.237 122.468 124.676 122.533 125.049 122.664C125.423 122.785 125.74 122.972 126.001 123.224C126.263 123.467 126.454 123.77 126.575 124.134C126.706 124.498 126.771 124.913 126.771 125.38H125.301C125.301 124.988 125.245 124.666 125.133 124.414C125.021 124.162 124.849 123.975 124.615 123.854C124.382 123.723 124.079 123.658 123.705 123.658C123.313 123.658 122.982 123.751 122.711 123.938C122.441 124.115 122.235 124.391 122.095 124.764C121.955 125.128 121.885 125.609 121.885 126.206V126.444C121.885 127.013 121.951 127.489 122.081 127.872C122.221 128.245 122.427 128.525 122.697 128.712C122.977 128.889 123.332 128.978 123.761 128.978C124.135 128.978 124.433 128.913 124.657 128.782C124.891 128.642 125.063 128.446 125.175 128.194C125.297 127.933 125.357 127.62 125.357 127.256H126.771C126.771 127.695 126.706 128.091 126.575 128.446C126.454 128.801 126.263 129.109 126.001 129.37C125.749 129.622 125.432 129.818 125.049 129.958C124.667 130.098 124.223 130.168 123.719 130.168ZM128.245 130V119.878H129.701V123.518H129.799C129.976 123.294 130.177 123.107 130.401 122.958C130.625 122.799 130.877 122.678 131.157 122.594C131.437 122.51 131.745 122.468 132.081 122.468C132.547 122.468 132.958 122.552 133.313 122.72C133.667 122.879 133.943 123.14 134.139 123.504C134.344 123.868 134.447 124.358 134.447 124.974V130H132.991V125.198C132.991 124.918 132.953 124.685 132.879 124.498C132.813 124.311 132.715 124.162 132.585 124.05C132.454 123.938 132.3 123.859 132.123 123.812C131.945 123.765 131.749 123.742 131.535 123.742C131.199 123.742 130.891 123.821 130.611 123.98C130.34 124.139 130.121 124.363 129.953 124.652C129.785 124.941 129.701 125.287 129.701 125.688V130H128.245ZM136.27 121.362V119.878H137.726V121.362H136.27ZM136.27 122.636H137.726V130H136.27V122.636ZM139.606 132.422V122.636H140.796L140.922 123.644H141.02C141.272 123.252 141.594 122.958 141.986 122.762C142.378 122.566 142.817 122.468 143.302 122.468C143.909 122.468 144.427 122.603 144.856 122.874C145.295 123.145 145.631 123.565 145.864 124.134C146.097 124.703 146.214 125.441 146.214 126.346C146.214 127.223 146.093 127.947 145.85 128.516C145.617 129.076 145.285 129.491 144.856 129.762C144.427 130.033 143.932 130.168 143.372 130.168C143.045 130.168 142.742 130.131 142.462 130.056C142.182 129.981 141.93 129.865 141.706 129.706C141.491 129.547 141.305 129.347 141.146 129.104H141.062V132.422H139.606ZM142.868 128.908C143.307 128.908 143.661 128.824 143.932 128.656C144.203 128.479 144.399 128.208 144.52 127.844C144.651 127.48 144.716 127.018 144.716 126.458V126.206C144.716 125.618 144.651 125.142 144.52 124.778C144.389 124.414 144.189 124.148 143.918 123.98C143.657 123.812 143.316 123.728 142.896 123.728C142.467 123.728 142.117 123.826 141.846 124.022C141.575 124.209 141.375 124.489 141.244 124.862C141.123 125.235 141.062 125.688 141.062 126.22V126.416C141.062 126.855 141.104 127.233 141.188 127.55C141.272 127.867 141.393 128.129 141.552 128.334C141.711 128.53 141.902 128.675 142.126 128.768C142.35 128.861 142.597 128.908 142.868 128.908ZM150.584 132.422V122.636H151.774L151.9 123.644H151.998C152.25 123.252 152.572 122.958 152.964 122.762C153.356 122.566 153.795 122.468 154.28 122.468C154.887 122.468 155.405 122.603 155.834 122.874C156.273 123.145 156.609 123.565 156.842 124.134C157.076 124.703 157.192 125.441 157.192 126.346C157.192 127.223 157.071 127.947 156.828 128.516C156.595 129.076 156.264 129.491 155.834 129.762C155.405 130.033 154.91 130.168 154.35 130.168C154.024 130.168 153.72 130.131 153.44 130.056C153.16 129.981 152.908 129.865 152.684 129.706C152.47 129.547 152.283 129.347 152.124 129.104H152.04V132.422H150.584ZM153.846 128.908C154.285 128.908 154.64 128.824 154.91 128.656C155.181 128.479 155.377 128.208 155.498 127.844C155.629 127.48 155.694 127.018 155.694 126.458V126.206C155.694 125.618 155.629 125.142 155.498 124.778C155.368 124.414 155.167 124.148 154.896 123.98C154.635 123.812 154.294 123.728 153.874 123.728C153.445 123.728 153.095 123.826 152.824 124.022C152.554 124.209 152.353 124.489 152.222 124.862C152.101 125.235 152.04 125.688 152.04 126.22V126.416C152.04 126.855 152.082 127.233 152.166 127.55C152.25 127.867 152.372 128.129 152.53 128.334C152.689 128.53 152.88 128.675 153.104 128.768C153.328 128.861 153.576 128.908 153.846 128.908ZM158.692 130V119.878H160.148V130H158.692ZM163.89 130.168C163.657 130.168 163.405 130.14 163.134 130.084C162.863 130.028 162.607 129.925 162.364 129.776C162.131 129.627 161.939 129.421 161.79 129.16C161.641 128.889 161.566 128.539 161.566 128.11C161.566 127.606 161.683 127.191 161.916 126.864C162.149 126.537 162.476 126.281 162.896 126.094C163.316 125.907 163.815 125.777 164.394 125.702C164.982 125.627 165.621 125.59 166.312 125.59V124.862C166.312 124.619 166.27 124.405 166.186 124.218C166.111 124.031 165.967 123.887 165.752 123.784C165.547 123.681 165.248 123.63 164.856 123.63C164.464 123.63 164.156 123.681 163.932 123.784C163.717 123.877 163.563 123.999 163.47 124.148C163.386 124.288 163.344 124.442 163.344 124.61V124.82H161.944C161.935 124.773 161.93 124.727 161.93 124.68V124.512C161.93 124.073 162.051 123.705 162.294 123.406C162.546 123.098 162.896 122.865 163.344 122.706C163.792 122.547 164.31 122.468 164.898 122.468C165.533 122.468 166.06 122.561 166.48 122.748C166.909 122.925 167.231 123.182 167.446 123.518C167.661 123.854 167.768 124.26 167.768 124.736V128.474C167.768 128.651 167.81 128.777 167.894 128.852C167.987 128.927 168.095 128.964 168.216 128.964H168.72V129.944C168.608 129.991 168.468 130.037 168.3 130.084C168.132 130.131 167.936 130.154 167.712 130.154C167.46 130.154 167.245 130.107 167.068 130.014C166.9 129.93 166.76 129.809 166.648 129.65C166.545 129.482 166.475 129.295 166.438 129.09H166.354C166.186 129.305 165.981 129.496 165.738 129.664C165.505 129.823 165.234 129.944 164.926 130.028C164.618 130.121 164.273 130.168 163.89 130.168ZM164.296 128.964C164.585 128.964 164.851 128.922 165.094 128.838C165.346 128.745 165.561 128.619 165.738 128.46C165.915 128.292 166.055 128.096 166.158 127.872C166.261 127.639 166.312 127.387 166.312 127.116V126.626C165.668 126.626 165.103 126.663 164.618 126.738C164.133 126.813 163.755 126.953 163.484 127.158C163.213 127.354 163.078 127.629 163.078 127.984C163.078 128.199 163.125 128.381 163.218 128.53C163.311 128.67 163.451 128.777 163.638 128.852C163.825 128.927 164.044 128.964 164.296 128.964ZM172.651 130.168C171.914 130.168 171.298 130.033 170.803 129.762C170.308 129.482 169.935 129.057 169.683 128.488C169.44 127.919 169.319 127.195 169.319 126.318C169.319 125.441 169.445 124.722 169.697 124.162C169.949 123.593 170.322 123.168 170.817 122.888C171.321 122.608 171.937 122.468 172.665 122.468C173.169 122.468 173.608 122.533 173.981 122.664C174.354 122.785 174.672 122.972 174.933 123.224C175.194 123.467 175.386 123.77 175.507 124.134C175.638 124.498 175.703 124.913 175.703 125.38H174.233C174.233 124.988 174.177 124.666 174.065 124.414C173.953 124.162 173.78 123.975 173.547 123.854C173.314 123.723 173.01 123.658 172.637 123.658C172.245 123.658 171.914 123.751 171.643 123.938C171.372 124.115 171.167 124.391 171.027 124.764C170.887 125.128 170.817 125.609 170.817 126.206V126.444C170.817 127.013 170.882 127.489 171.013 127.872C171.153 128.245 171.358 128.525 171.629 128.712C171.909 128.889 172.264 128.978 172.693 128.978C173.066 128.978 173.365 128.913 173.589 128.782C173.822 128.642 173.995 128.446 174.107 128.194C174.228 127.933 174.289 127.62 174.289 127.256H175.703C175.703 127.695 175.638 128.091 175.507 128.446C175.386 128.801 175.194 129.109 174.933 129.37C174.681 129.622 174.364 129.818 173.981 129.958C173.598 130.098 173.155 130.168 172.651 130.168ZM180.228 130.168C179.472 130.168 178.838 130.033 178.324 129.762C177.82 129.482 177.438 129.057 177.176 128.488C176.915 127.919 176.784 127.195 176.784 126.318C176.784 125.431 176.915 124.708 177.176 124.148C177.438 123.579 177.825 123.159 178.338 122.888C178.852 122.608 179.491 122.468 180.256 122.468C180.956 122.468 181.54 122.603 182.006 122.874C182.482 123.135 182.842 123.537 183.084 124.078C183.327 124.619 183.448 125.301 183.448 126.122V126.682H178.282C178.301 127.205 178.38 127.643 178.52 127.998C178.66 128.343 178.87 128.6 179.15 128.768C179.44 128.927 179.804 129.006 180.242 129.006C180.513 129.006 180.756 128.973 180.97 128.908C181.185 128.833 181.367 128.731 181.516 128.6C181.666 128.46 181.782 128.297 181.866 128.11C181.95 127.914 181.992 127.695 181.992 127.452H183.42C183.42 127.891 183.346 128.278 183.196 128.614C183.047 128.95 182.828 129.235 182.538 129.468C182.258 129.692 181.922 129.865 181.53 129.986C181.138 130.107 180.704 130.168 180.228 130.168ZM178.31 125.618H181.922C181.922 125.254 181.88 124.951 181.796 124.708C181.722 124.456 181.61 124.251 181.46 124.092C181.311 123.933 181.134 123.821 180.928 123.756C180.723 123.681 180.49 123.644 180.228 123.644C179.836 123.644 179.5 123.714 179.22 123.854C178.95 123.994 178.74 124.213 178.59 124.512C178.441 124.801 178.348 125.17 178.31 125.618ZM187.462 130.168C186.865 130.168 186.347 130.033 185.908 129.762C185.47 129.491 185.129 129.071 184.886 128.502C184.653 127.933 184.536 127.195 184.536 126.29C184.536 125.403 184.658 124.68 184.9 124.12C185.143 123.56 185.479 123.145 185.908 122.874C186.338 122.603 186.832 122.468 187.392 122.468C187.719 122.468 188.022 122.505 188.302 122.58C188.582 122.655 188.83 122.771 189.044 122.93C189.268 123.089 189.455 123.289 189.604 123.532H189.702V119.878H191.158V130H189.968L189.828 128.992H189.73C189.488 129.384 189.166 129.678 188.764 129.874C188.372 130.07 187.938 130.168 187.462 130.168ZM187.868 128.908C188.298 128.908 188.643 128.815 188.904 128.628C189.175 128.432 189.376 128.152 189.506 127.788C189.637 127.415 189.702 126.962 189.702 126.43V126.234C189.702 125.786 189.66 125.403 189.576 125.086C189.492 124.769 189.371 124.512 189.212 124.316C189.054 124.111 188.862 123.961 188.638 123.868C188.414 123.775 188.162 123.728 187.882 123.728C187.453 123.728 187.103 123.817 186.832 123.994C186.562 124.162 186.361 124.428 186.23 124.792C186.109 125.156 186.048 125.627 186.048 126.206V126.458C186.048 127.037 186.114 127.508 186.244 127.872C186.375 128.227 186.571 128.488 186.832 128.656C187.103 128.824 187.448 128.908 187.868 128.908ZM199.043 130.168C198.277 130.168 197.629 130.033 197.097 129.762C196.574 129.482 196.177 129.057 195.907 128.488C195.645 127.919 195.515 127.195 195.515 126.318C195.515 125.431 195.645 124.708 195.907 124.148C196.177 123.579 196.574 123.159 197.097 122.888C197.629 122.608 198.277 122.468 199.043 122.468C199.827 122.468 200.48 122.608 201.003 122.888C201.525 123.159 201.917 123.579 202.179 124.148C202.449 124.708 202.585 125.431 202.585 126.318C202.585 127.195 202.449 127.919 202.179 128.488C201.917 129.057 201.525 129.482 201.003 129.762C200.48 130.033 199.827 130.168 199.043 130.168ZM199.043 128.964C199.509 128.964 199.892 128.875 200.191 128.698C200.489 128.511 200.709 128.231 200.849 127.858C200.998 127.485 201.073 127.013 201.073 126.444V126.192C201.073 125.623 200.998 125.151 200.849 124.778C200.709 124.405 200.489 124.129 200.191 123.952C199.892 123.765 199.509 123.672 199.043 123.672C198.585 123.672 198.207 123.765 197.909 123.952C197.61 124.129 197.386 124.405 197.237 124.778C197.097 125.151 197.027 125.623 197.027 126.192V126.444C197.027 127.013 197.097 127.485 197.237 127.858C197.386 128.231 197.61 128.511 197.909 128.698C198.207 128.875 198.585 128.964 199.043 128.964ZM204.069 122.636H205.273L205.399 123.686H205.497C205.674 123.415 205.884 123.191 206.127 123.014C206.37 122.837 206.636 122.701 206.925 122.608C207.224 122.515 207.55 122.468 207.905 122.468C208.372 122.468 208.782 122.552 209.137 122.72C209.492 122.879 209.767 123.14 209.963 123.504C210.168 123.868 210.271 124.358 210.271 124.974V130H208.815V125.198C208.815 124.918 208.778 124.685 208.703 124.498C208.638 124.311 208.54 124.162 208.409 124.05C208.278 123.938 208.124 123.859 207.947 123.812C207.77 123.765 207.574 123.742 207.359 123.742C207.023 123.742 206.715 123.826 206.435 123.994C206.164 124.153 205.945 124.377 205.777 124.666C205.609 124.955 205.525 125.296 205.525 125.688V130H204.069V122.636ZM215.763 132.548C215.483 132.548 215.25 132.525 215.063 132.478L214.713 132.408V131.358H215.413C215.619 131.358 215.824 131.311 216.029 131.218C216.244 131.125 216.435 130.975 216.603 130.77C216.771 130.565 216.911 130.308 217.023 130L214.153 122.636H215.679L217.107 126.304C217.173 126.472 217.243 126.682 217.317 126.934C217.401 127.186 217.481 127.443 217.555 127.704C217.639 127.965 217.709 128.199 217.765 128.404H217.835C217.882 128.264 217.929 128.105 217.975 127.928C218.031 127.741 218.087 127.55 218.143 127.354C218.199 127.158 218.255 126.971 218.311 126.794C218.367 126.607 218.414 126.449 218.451 126.318L219.641 122.636H221.125L218.633 129.72C218.493 130.112 218.339 130.481 218.171 130.826C218.003 131.171 217.807 131.47 217.583 131.722C217.369 131.983 217.112 132.184 216.813 132.324C216.515 132.473 216.165 132.548 215.763 132.548ZM225.293 130.168C224.527 130.168 223.879 130.033 223.347 129.762C222.824 129.482 222.427 129.057 222.157 128.488C221.895 127.919 221.765 127.195 221.765 126.318C221.765 125.431 221.895 124.708 222.157 124.148C222.427 123.579 222.824 123.159 223.347 122.888C223.879 122.608 224.527 122.468 225.293 122.468C226.077 122.468 226.73 122.608 227.253 122.888C227.775 123.159 228.167 123.579 228.429 124.148C228.699 124.708 228.835 125.431 228.835 126.318C228.835 127.195 228.699 127.919 228.429 128.488C228.167 129.057 227.775 129.482 227.253 129.762C226.73 130.033 226.077 130.168 225.293 130.168ZM225.293 128.964C225.759 128.964 226.142 128.875 226.441 128.698C226.739 128.511 226.959 128.231 227.099 127.858C227.248 127.485 227.323 127.013 227.323 126.444V126.192C227.323 125.623 227.248 125.151 227.099 124.778C226.959 124.405 226.739 124.129 226.441 123.952C226.142 123.765 225.759 123.672 225.293 123.672C224.835 123.672 224.457 123.765 224.159 123.952C223.86 124.129 223.636 124.405 223.487 124.778C223.347 125.151 223.277 125.623 223.277 126.192V126.444C223.277 127.013 223.347 127.485 223.487 127.858C223.636 128.231 223.86 128.511 224.159 128.698C224.457 128.875 224.835 128.964 225.293 128.964ZM232.629 130.168C231.92 130.168 231.346 129.981 230.907 129.608C230.468 129.225 230.249 128.577 230.249 127.662V122.636H231.705V127.438C231.705 127.718 231.738 127.951 231.803 128.138C231.878 128.325 231.98 128.474 232.111 128.586C232.242 128.698 232.396 128.777 232.573 128.824C232.75 128.871 232.946 128.894 233.161 128.894C233.497 128.894 233.8 128.815 234.071 128.656C234.351 128.488 234.575 128.259 234.743 127.97C234.911 127.671 234.995 127.331 234.995 126.948V122.636H236.451V130H235.261L235.135 128.95H235.037C234.86 129.221 234.65 129.445 234.407 129.622C234.164 129.799 233.894 129.935 233.595 130.028C233.306 130.121 232.984 130.168 232.629 130.168ZM238.331 122.636H239.535L239.661 123.826H239.745C239.829 123.593 239.936 123.373 240.067 123.168C240.207 122.963 240.384 122.795 240.599 122.664C240.823 122.533 241.093 122.468 241.411 122.468C241.56 122.468 241.691 122.482 241.803 122.51C241.924 122.538 242.017 122.561 242.083 122.58V123.952H241.593C241.294 123.952 241.028 123.999 240.795 124.092C240.571 124.185 240.379 124.325 240.221 124.512C240.071 124.689 239.959 124.909 239.885 125.17C239.819 125.431 239.787 125.725 239.787 126.052V130H238.331V122.636ZM88.938 156.422V146.636H90.128L90.254 147.644H90.352C90.604 147.252 90.926 146.958 91.318 146.762C91.71 146.566 92.1487 146.468 92.634 146.468C93.2407 146.468 93.7587 146.603 94.188 146.874C94.6267 147.145 94.9627 147.565 95.196 148.134C95.4293 148.703 95.546 149.441 95.546 150.346C95.546 151.223 95.4247 151.947 95.182 152.516C94.9487 153.076 94.6173 153.491 94.188 153.762C93.7587 154.033 93.264 154.168 92.704 154.168C92.3773 154.168 92.074 154.131 91.794 154.056C91.514 153.981 91.262 153.865 91.038 153.706C90.8233 153.547 90.6367 153.347 90.478 153.104H90.394V156.422H88.938ZM92.2 152.908C92.6387 152.908 92.9933 152.824 93.264 152.656C93.5347 152.479 93.7307 152.208 93.852 151.844C93.9827 151.48 94.048 151.018 94.048 150.458V150.206C94.048 149.618 93.9827 149.142 93.852 148.778C93.7213 148.414 93.5207 148.148 93.25 147.98C92.9887 147.812 92.648 147.728 92.228 147.728C91.7987 147.728 91.4487 147.826 91.178 148.022C90.9073 148.209 90.7067 148.489 90.576 148.862C90.4547 149.235 90.394 149.688 90.394 150.22V150.416C90.394 150.855 90.436 151.233 90.52 151.55C90.604 151.867 90.7253 152.129 90.884 152.334C91.0427 152.53 91.234 152.675 91.458 152.768C91.682 152.861 91.9293 152.908 92.2 152.908ZM97.0454 154V143.878H98.5014V147.518H98.5994C98.7768 147.294 98.9774 147.107 99.2014 146.958C99.4254 146.799 99.6774 146.678 99.9574 146.594C100.237 146.51 100.545 146.468 100.881 146.468C101.348 146.468 101.759 146.552 102.113 146.72C102.468 146.879 102.743 147.14 102.939 147.504C103.145 147.868 103.247 148.358 103.247 148.974V154H101.791V149.198C101.791 148.918 101.754 148.685 101.679 148.498C101.614 148.311 101.516 148.162 101.385 148.05C101.255 147.938 101.101 147.859 100.923 147.812C100.746 147.765 100.55 147.742 100.335 147.742C99.9994 147.742 99.6914 147.821 99.4114 147.98C99.1408 148.139 98.9214 148.363 98.7534 148.652C98.5854 148.941 98.5014 149.287 98.5014 149.688V154H97.0454ZM105.869 156.548C105.589 156.548 105.355 156.525 105.169 156.478L104.819 156.408V155.358H105.519C105.724 155.358 105.929 155.311 106.135 155.218C106.349 155.125 106.541 154.975 106.709 154.77C106.877 154.565 107.017 154.308 107.129 154L104.259 146.636H105.785L107.213 150.304C107.278 150.472 107.348 150.682 107.423 150.934C107.507 151.186 107.586 151.443 107.661 151.704C107.745 151.965 107.815 152.199 107.871 152.404H107.941C107.987 152.264 108.034 152.105 108.081 151.928C108.137 151.741 108.193 151.55 108.249 151.354C108.305 151.158 108.361 150.971 108.417 150.794C108.473 150.607 108.519 150.449 108.557 150.318L109.747 146.636H111.231L108.739 153.72C108.599 154.112 108.445 154.481 108.277 154.826C108.109 155.171 107.913 155.47 107.689 155.722C107.474 155.983 107.217 156.184 106.919 156.324C106.62 156.473 106.27 156.548 105.869 156.548ZM115.006 154.168C114.492 154.168 114.04 154.112 113.648 154C113.256 153.888 112.929 153.734 112.668 153.538C112.406 153.342 112.206 153.109 112.066 152.838C111.935 152.558 111.87 152.25 111.87 151.914V151.788C111.876 151.762 111.88 151.739 111.882 151.718C111.883 151.708 111.884 151.699 111.884 151.69H113.326V151.774V151.844C113.326 152.133 113.405 152.367 113.564 152.544C113.722 152.712 113.932 152.833 114.194 152.908C114.464 152.973 114.758 153.006 115.076 153.006C115.356 153.006 115.612 152.973 115.846 152.908C116.088 152.833 116.284 152.726 116.434 152.586C116.592 152.446 116.672 152.269 116.672 152.054C116.672 151.774 116.574 151.559 116.378 151.41C116.182 151.261 115.925 151.144 115.608 151.06C115.29 150.967 114.959 150.869 114.614 150.766C114.306 150.682 113.998 150.593 113.69 150.5C113.391 150.397 113.12 150.267 112.878 150.108C112.635 149.949 112.439 149.749 112.29 149.506C112.14 149.263 112.066 148.96 112.066 148.596C112.066 148.251 112.14 147.947 112.29 147.686C112.439 147.425 112.644 147.205 112.906 147.028C113.176 146.851 113.494 146.715 113.858 146.622C114.231 146.529 114.637 146.482 115.076 146.482C115.533 146.482 115.939 146.533 116.294 146.636C116.648 146.729 116.947 146.865 117.19 147.042C117.442 147.219 117.633 147.434 117.764 147.686C117.894 147.929 117.96 148.19 117.96 148.47C117.96 148.526 117.955 148.587 117.946 148.652V148.764H116.518V148.638C116.518 148.451 116.466 148.283 116.364 148.134C116.261 147.985 116.098 147.863 115.874 147.77C115.659 147.677 115.37 147.63 115.006 147.63C114.763 147.63 114.548 147.653 114.362 147.7C114.175 147.737 114.021 147.793 113.9 147.868C113.778 147.943 113.685 148.031 113.62 148.134C113.564 148.237 113.536 148.353 113.536 148.484C113.536 148.699 113.61 148.867 113.76 148.988C113.918 149.1 114.124 149.198 114.376 149.282C114.628 149.357 114.898 149.441 115.188 149.534C115.524 149.627 115.864 149.725 116.21 149.828C116.555 149.921 116.872 150.043 117.162 150.192C117.46 150.341 117.698 150.547 117.876 150.808C118.062 151.069 118.156 151.419 118.156 151.858C118.156 152.259 118.076 152.609 117.918 152.908C117.759 153.207 117.535 153.449 117.246 153.636C116.966 153.813 116.634 153.944 116.252 154.028C115.869 154.121 115.454 154.168 115.006 154.168ZM119.631 145.362V143.878H121.087V145.362H119.631ZM119.631 146.636H121.087V154H119.631V146.636ZM125.893 154.168C125.156 154.168 124.54 154.033 124.045 153.762C123.551 153.482 123.177 153.057 122.925 152.488C122.683 151.919 122.561 151.195 122.561 150.318C122.561 149.441 122.687 148.722 122.939 148.162C123.191 147.593 123.565 147.168 124.059 146.888C124.563 146.608 125.179 146.468 125.907 146.468C126.411 146.468 126.85 146.533 127.223 146.664C127.597 146.785 127.914 146.972 128.175 147.224C128.437 147.467 128.628 147.77 128.749 148.134C128.88 148.498 128.945 148.913 128.945 149.38H127.475C127.475 148.988 127.419 148.666 127.307 148.414C127.195 148.162 127.023 147.975 126.789 147.854C126.556 147.723 126.253 147.658 125.879 147.658C125.487 147.658 125.156 147.751 124.885 147.938C124.615 148.115 124.409 148.391 124.269 148.764C124.129 149.128 124.059 149.609 124.059 150.206V150.444C124.059 151.013 124.125 151.489 124.255 151.872C124.395 152.245 124.601 152.525 124.871 152.712C125.151 152.889 125.506 152.978 125.935 152.978C126.309 152.978 126.607 152.913 126.831 152.782C127.065 152.642 127.237 152.446 127.349 152.194C127.471 151.933 127.531 151.62 127.531 151.256H128.945C128.945 151.695 128.88 152.091 128.749 152.446C128.628 152.801 128.437 153.109 128.175 153.37C127.923 153.622 127.606 153.818 127.223 153.958C126.841 154.098 126.397 154.168 125.893 154.168ZM132.28 154.168C132.047 154.168 131.795 154.14 131.524 154.084C131.254 154.028 130.997 153.925 130.754 153.776C130.521 153.627 130.33 153.421 130.18 153.16C130.031 152.889 129.956 152.539 129.956 152.11C129.956 151.606 130.073 151.191 130.306 150.864C130.54 150.537 130.866 150.281 131.286 150.094C131.706 149.907 132.206 149.777 132.784 149.702C133.372 149.627 134.012 149.59 134.702 149.59V148.862C134.702 148.619 134.66 148.405 134.576 148.218C134.502 148.031 134.357 147.887 134.142 147.784C133.937 147.681 133.638 147.63 133.246 147.63C132.854 147.63 132.546 147.681 132.322 147.784C132.108 147.877 131.954 147.999 131.86 148.148C131.776 148.288 131.734 148.442 131.734 148.61V148.82H130.334C130.325 148.773 130.32 148.727 130.32 148.68V148.512C130.32 148.073 130.442 147.705 130.684 147.406C130.936 147.098 131.286 146.865 131.734 146.706C132.182 146.547 132.7 146.468 133.288 146.468C133.923 146.468 134.45 146.561 134.87 146.748C135.3 146.925 135.622 147.182 135.836 147.518C136.051 147.854 136.158 148.26 136.158 148.736V152.474C136.158 152.651 136.2 152.777 136.284 152.852C136.378 152.927 136.485 152.964 136.606 152.964H137.11V153.944C136.998 153.991 136.858 154.037 136.69 154.084C136.522 154.131 136.326 154.154 136.102 154.154C135.85 154.154 135.636 154.107 135.458 154.014C135.29 153.93 135.15 153.809 135.038 153.65C134.936 153.482 134.866 153.295 134.828 153.09H134.744C134.576 153.305 134.371 153.496 134.128 153.664C133.895 153.823 133.624 153.944 133.316 154.028C133.008 154.121 132.663 154.168 132.28 154.168ZM132.686 152.964C132.976 152.964 133.242 152.922 133.484 152.838C133.736 152.745 133.951 152.619 134.128 152.46C134.306 152.292 134.446 152.096 134.548 151.872C134.651 151.639 134.702 151.387 134.702 151.116V150.626C134.058 150.626 133.494 150.663 133.008 150.738C132.523 150.813 132.145 150.953 131.874 151.158C131.604 151.354 131.468 151.629 131.468 151.984C131.468 152.199 131.515 152.381 131.608 152.53C131.702 152.67 131.842 152.777 132.028 152.852C132.215 152.927 132.434 152.964 132.686 152.964ZM138.116 154V143.878H139.572V154H138.116ZM147.249 154.168C146.511 154.168 145.895 154.033 145.401 153.762C144.906 153.482 144.533 153.057 144.281 152.488C144.038 151.919 143.917 151.195 143.917 150.318C143.917 149.441 144.043 148.722 144.295 148.162C144.547 147.593 144.92 147.168 145.415 146.888C145.919 146.608 146.535 146.468 147.263 146.468C147.767 146.468 148.205 146.533 148.579 146.664C148.952 146.785 149.269 146.972 149.531 147.224C149.792 147.467 149.983 147.77 150.105 148.134C150.235 148.498 150.301 148.913 150.301 149.38H148.831C148.831 148.988 148.775 148.666 148.663 148.414C148.551 148.162 148.378 147.975 148.145 147.854C147.911 147.723 147.608 147.658 147.235 147.658C146.843 147.658 146.511 147.751 146.241 147.938C145.97 148.115 145.765 148.391 145.625 148.764C145.485 149.128 145.415 149.609 145.415 150.206V150.444C145.415 151.013 145.48 151.489 145.611 151.872C145.751 152.245 145.956 152.525 146.227 152.712C146.507 152.889 146.861 152.978 147.291 152.978C147.664 152.978 147.963 152.913 148.187 152.782C148.42 152.642 148.593 152.446 148.705 152.194C148.826 151.933 148.887 151.62 148.887 151.256H150.301C150.301 151.695 150.235 152.091 150.105 152.446C149.983 152.801 149.792 153.109 149.531 153.37C149.279 153.622 148.961 153.818 148.579 153.958C148.196 154.098 147.753 154.168 147.249 154.168ZM151.774 154V143.878H153.23V154H151.774ZM158.246 154.168C157.481 154.168 156.832 154.033 156.3 153.762C155.777 153.482 155.381 153.057 155.11 152.488C154.849 151.919 154.718 151.195 154.718 150.318C154.718 149.431 154.849 148.708 155.11 148.148C155.381 147.579 155.777 147.159 156.3 146.888C156.832 146.608 157.481 146.468 158.246 146.468C159.03 146.468 159.683 146.608 160.206 146.888C160.729 147.159 161.121 147.579 161.382 148.148C161.653 148.708 161.788 149.431 161.788 150.318C161.788 151.195 161.653 151.919 161.382 152.488C161.121 153.057 160.729 153.482 160.206 153.762C159.683 154.033 159.03 154.168 158.246 154.168ZM158.246 152.964C158.713 152.964 159.095 152.875 159.394 152.698C159.693 152.511 159.912 152.231 160.052 151.858C160.201 151.485 160.276 151.013 160.276 150.444V150.192C160.276 149.623 160.201 149.151 160.052 148.778C159.912 148.405 159.693 148.129 159.394 147.952C159.095 147.765 158.713 147.672 158.246 147.672C157.789 147.672 157.411 147.765 157.112 147.952C156.813 148.129 156.589 148.405 156.44 148.778C156.3 149.151 156.23 149.623 156.23 150.192V150.444C156.23 151.013 156.3 151.485 156.44 151.858C156.589 152.231 156.813 152.511 157.112 152.698C157.411 152.875 157.789 152.964 158.246 152.964ZM165.106 154.168C164.686 154.168 164.355 154.089 164.112 153.93C163.879 153.762 163.711 153.552 163.608 153.3C163.515 153.039 163.468 152.763 163.468 152.474V147.84H162.544V146.636H163.496L163.762 144.578H164.924V146.636H166.254V147.84H164.924V152.306C164.924 152.521 164.971 152.684 165.064 152.796C165.157 152.908 165.311 152.964 165.526 152.964H166.254V153.944C166.161 153.981 166.044 154.014 165.904 154.042C165.773 154.079 165.638 154.107 165.498 154.126C165.358 154.154 165.227 154.168 165.106 154.168ZM167.538 154V143.878H168.994V147.518H169.092C169.269 147.294 169.47 147.107 169.694 146.958C169.918 146.799 170.17 146.678 170.45 146.594C170.73 146.51 171.038 146.468 171.374 146.468C171.84 146.468 172.251 146.552 172.606 146.72C172.96 146.879 173.236 147.14 173.432 147.504C173.637 147.868 173.74 148.358 173.74 148.974V154H172.284V149.198C172.284 148.918 172.246 148.685 172.172 148.498C172.106 148.311 172.008 148.162 171.878 148.05C171.747 147.938 171.593 147.859 171.416 147.812C171.238 147.765 171.042 147.742 170.828 147.742C170.492 147.742 170.184 147.821 169.904 147.98C169.633 148.139 169.414 148.363 169.246 148.652C169.078 148.941 168.994 149.287 168.994 149.688V154H167.538ZM178.615 154.168C177.859 154.168 177.224 154.033 176.711 153.762C176.207 153.482 175.824 153.057 175.563 152.488C175.302 151.919 175.171 151.195 175.171 150.318C175.171 149.431 175.302 148.708 175.563 148.148C175.824 147.579 176.212 147.159 176.725 146.888C177.238 146.608 177.878 146.468 178.643 146.468C179.343 146.468 179.926 146.603 180.393 146.874C180.869 147.135 181.228 147.537 181.471 148.078C181.714 148.619 181.835 149.301 181.835 150.122V150.682H176.669C176.688 151.205 176.767 151.643 176.907 151.998C177.047 152.343 177.257 152.6 177.537 152.768C177.826 152.927 178.19 153.006 178.629 153.006C178.9 153.006 179.142 152.973 179.357 152.908C179.572 152.833 179.754 152.731 179.903 152.6C180.052 152.46 180.169 152.297 180.253 152.11C180.337 151.914 180.379 151.695 180.379 151.452H181.807C181.807 151.891 181.732 152.278 181.583 152.614C181.434 152.95 181.214 153.235 180.925 153.468C180.645 153.692 180.309 153.865 179.917 153.986C179.525 154.107 179.091 154.168 178.615 154.168ZM176.697 149.618H180.309C180.309 149.254 180.267 148.951 180.183 148.708C180.108 148.456 179.996 148.251 179.847 148.092C179.698 147.933 179.52 147.821 179.315 147.756C179.11 147.681 178.876 147.644 178.615 147.644C178.223 147.644 177.887 147.714 177.607 147.854C177.336 147.994 177.126 148.213 176.977 148.512C176.828 148.801 176.734 149.17 176.697 149.618ZM186.031 154.168C185.518 154.168 185.065 154.112 184.673 154C184.281 153.888 183.954 153.734 183.693 153.538C183.432 153.342 183.231 153.109 183.091 152.838C182.96 152.558 182.895 152.25 182.895 151.914V151.788C182.904 151.751 182.909 151.718 182.909 151.69H184.351V151.774V151.844C184.351 152.133 184.43 152.367 184.589 152.544C184.748 152.712 184.958 152.833 185.219 152.908C185.49 152.973 185.784 153.006 186.101 153.006C186.381 153.006 186.638 152.973 186.871 152.908C187.114 152.833 187.31 152.726 187.459 152.586C187.618 152.446 187.697 152.269 187.697 152.054C187.697 151.774 187.599 151.559 187.403 151.41C187.207 151.261 186.95 151.144 186.633 151.06C186.316 150.967 185.984 150.869 185.639 150.766C185.331 150.682 185.023 150.593 184.715 150.5C184.416 150.397 184.146 150.267 183.903 150.108C183.66 149.949 183.464 149.749 183.315 149.506C183.166 149.263 183.091 148.96 183.091 148.596C183.091 148.251 183.166 147.947 183.315 147.686C183.464 147.425 183.67 147.205 183.931 147.028C184.202 146.851 184.519 146.715 184.883 146.622C185.256 146.529 185.662 146.482 186.101 146.482C186.558 146.482 186.964 146.533 187.319 146.636C187.674 146.729 187.972 146.865 188.215 147.042C188.467 147.219 188.658 147.434 188.789 147.686C188.92 147.929 188.985 148.19 188.985 148.47C188.985 148.526 188.98 148.587 188.971 148.652V148.764H187.543V148.638C187.543 148.451 187.492 148.283 187.389 148.134C187.286 147.985 187.123 147.863 186.899 147.77C186.684 147.677 186.395 147.63 186.031 147.63C185.788 147.63 185.574 147.653 185.387 147.7C185.2 147.737 185.046 147.793 184.925 147.868C184.804 147.943 184.71 148.031 184.645 148.134C184.589 148.237 184.561 148.353 184.561 148.484C184.561 148.699 184.636 148.867 184.785 148.988C184.944 149.1 185.149 149.198 185.401 149.282C185.653 149.357 185.924 149.441 186.213 149.534C186.549 149.627 186.89 149.725 187.235 149.828C187.58 149.921 187.898 150.043 188.187 150.192C188.486 150.341 188.724 150.547 188.901 150.808C189.088 151.069 189.181 151.419 189.181 151.858C189.181 152.259 189.102 152.609 188.943 152.908C188.784 153.207 188.56 153.449 188.271 153.636C187.991 153.813 187.66 153.944 187.277 154.028C186.894 154.121 186.479 154.168 186.031 154.168ZM190.951 154V152.376H192.505V154H190.951Z" fill="url(#paint0_radial_1_7575)"/>
<defs>
<radialGradient id="paint0_radial_1_7575" cx="0" cy="0" r="1" gradientUnits="userSpaceOnUse" gradientTransform="translate(254.676 -19.1691) rotate(97.3154) scale(280.234 286.249)">
<stop stop-color="#B7B7B7"/>
<stop offset="0.526042" stop-color="#B7B7B7"/>
<stop offset="0.8125" stop-color="white"/>
<stop offset="1" stop-color="#777777"/>
</radialGradient>
</defs>
</svg>
