<svg width="26" height="24" viewBox="0 0 26 24" fill="none" xmlns="http://www.w3.org/2000/svg">
<path d="M19 11.25H21.5406C21.679 11.2503 21.8148 11.2118 21.9324 11.1389C22.0501 11.066 22.1449 10.9616 22.2062 10.8375L23.9313 7.3875C24.0167 7.21472 24.0333 7.0159 23.9776 6.83136C23.9218 6.64682 23.798 6.49038 23.6312 6.39375L19 3.75" stroke="white" stroke-width="2" stroke-linecap="round" stroke-linejoin="round"/>
<path d="M7.0002 11.25H4.45957C4.32116 11.2503 4.18544 11.2118 4.06779 11.1389C3.95013 11.066 3.85527 10.9616 3.79395 10.8375L2.06895 7.3875C1.98349 7.21472 1.96693 7.0159 2.02264 6.83136C2.07835 6.64682 2.20215 6.49038 2.36895 6.39375L7.0002 3.75" stroke="white" stroke-width="2" stroke-linecap="round" stroke-linejoin="round"/>
<path d="M16 3.75C16 4.54565 15.6839 5.30871 15.1213 5.87132C14.5587 6.43393 13.7956 6.75 13 6.75C12.2044 6.75 11.4413 6.43393 10.8787 5.87132C10.3161 5.30871 10 4.54565 10 3.75H7V19.5C7 19.6989 7.07902 19.8897 7.21967 20.0303C7.36032 20.171 7.55109 20.25 7.75 20.25H18.25C18.4489 20.25 18.6397 20.171 18.7803 20.0303C18.921 19.8897 19 19.6989 19 19.5V3.75H16Z" stroke="white" stroke-width="2" stroke-linecap="round" stroke-linejoin="round"/>
</svg>
