<svg width="160" height="160" viewBox="0 0 160 160" fill="none" xmlns="http://www.w3.org/2000/svg">
<path d="M80 0L81.2486 73.723L110.615 6.08964L83.5556 74.6786L136.569 23.4315L85.3214 76.4444L153.91 49.3853L86.277 78.7514L160 80L86.277 81.2486L153.91 110.615L85.3214 83.5556L136.569 136.569L83.5556 85.3214L110.615 153.91L81.2486 86.277L80 160L78.7514 86.277L49.3853 153.91L76.4444 85.3214L23.4315 136.569L74.6786 83.5556L6.08964 110.615L73.723 81.2486L0 80L73.723 78.7514L6.08964 49.3853L74.6786 76.4444L23.4315 23.4315L76.4444 74.6786L49.3853 6.08964L78.7514 73.723L80 0Z" fill="white"/>
</svg>
