<svg width="15" height="16" viewBox="0 0 15 16" fill="none" xmlns="http://www.w3.org/2000/svg">
<path d="M9.663 7.6C9.663 8.088 9.303 8.488 8.847 8.488C8.399 8.488 8.031 8.088 8.031 7.6C8.031 7.112 8.391 6.712 8.847 6.712C9.303 6.712 9.663 7.112 9.663 7.6ZM5.927 6.712C5.471 6.712 5.111 7.112 5.111 7.6C5.111 8.088 5.479 8.488 5.927 8.488C6.383 8.488 6.743 8.088 6.743 7.6C6.751 7.112 6.383 6.712 5.927 6.712ZM14.375 1.648V16C12.3596 14.2189 13.0041 14.8085 10.663 12.632L11.087 14.112H2.015C1.111 14.112 0.375 13.376 0.375 12.464V1.648C0.375 0.736 1.111 0 2.015 0H12.735C13.639 0 14.375 0.736 14.375 1.648ZM12.095 9.232C12.095 6.656 10.943 4.568 10.943 4.568C9.791 3.704 8.695 3.728 8.695 3.728L8.583 3.856C9.943 4.272 10.575 4.872 10.575 4.872C8.67466 3.83047 6.44238 3.83028 4.599 4.64C4.303 4.776 4.127 4.872 4.127 4.872C4.127 4.872 4.791 4.24 6.231 3.824L6.151 3.728C6.151 3.728 5.055 3.704 3.903 4.568C3.903 4.568 2.751 6.656 2.751 9.232C2.751 9.232 3.423 10.392 5.191 10.448C5.191 10.448 5.487 10.088 5.727 9.784C4.711 9.48 4.327 8.84 4.327 8.84C4.44469 8.92237 4.63875 9.02916 4.655 9.04C6.00531 9.79619 7.92338 10.0439 9.647 9.32C9.927 9.216 10.239 9.064 10.567 8.848C10.567 8.848 10.167 9.504 9.119 9.8C9.359 10.104 9.647 10.448 9.647 10.448C11.415 10.392 12.095 9.232 12.095 9.232Z" fill="white" fill-opacity="0.7"/>
</svg>
