<svg width="24" height="24" viewBox="0 0 24 24" fill="none" xmlns="http://www.w3.org/2000/svg">
<path d="M15.2196 6.74216C14.8417 6.70788 14.3858 6.66696 14.2064 6.65124C13.8985 6.62423 12.5197 6.60167 12.267 6.6195C11.5137 6.67262 10.5826 6.84396 10.0159 7.03373C8.98937 7.37753 8.25629 7.95747 8.0062 8.62365C7.96413 8.73569 7.95791 8.77805 7.95713 8.95788L7.95623 9.16382L8.03386 9.32258C8.17452 9.61027 8.40355 9.7901 8.74963 9.88462C8.87031 9.91757 8.93904 9.92324 9.22566 9.92395C9.52631 9.92468 9.58407 9.91974 9.78904 9.87569C10.2356 9.77971 10.7615 9.57503 11.3119 9.283C11.5759 9.14295 11.6676 9.07391 11.6676 9.01523C11.6676 8.9587 11.6165 8.90317 11.5645 8.90317C11.5379 8.90317 11.3738 8.9701 11.1996 9.05192C10.844 9.21894 10.3402 9.42475 10.1907 9.46403C10.0276 9.50693 9.7401 9.51609 9.5871 9.48328C9.30525 9.42287 9.10313 9.27567 8.99286 9.05055C8.93308 8.9285 8.92634 8.89993 8.92005 8.74169C8.89506 8.11416 9.29016 7.6412 10.0498 7.38926C10.4951 7.24156 10.897 7.19561 11.4515 7.22896C11.8816 7.25485 12.4845 7.32496 13.0117 7.41043L13.1304 7.42967L13.0332 7.51929C12.9798 7.56857 12.8803 7.6931 12.8121 7.79602C12.6042 8.10972 12.2015 8.97359 12.0099 9.51694C11.848 9.97612 11.3474 11.318 11.3102 11.3926C11.2885 11.4359 11.2485 11.4879 11.2211 11.5082C11.1726 11.5441 11.145 11.5454 10.1497 11.5578C9.54214 11.5654 9.10059 11.578 9.06018 11.589C8.86573 11.6418 8.84258 11.7826 9.01187 11.8827C9.21653 12.0037 9.65558 12.1123 10.3452 12.2123C10.6878 12.262 10.7827 12.2899 10.8044 12.3476C10.8275 12.4089 10.8151 12.4493 10.6851 12.737C10.4629 13.2292 10.1438 13.8183 9.8595 14.2612C9.18834 15.307 8.3372 16.1085 7.57644 16.411C7.37277 16.492 7.19387 16.5236 6.94245 16.523C6.56744 16.522 6.31909 16.4387 6.12989 16.2505C5.83893 15.9611 5.8883 15.4733 6.25858 14.9786C6.43965 14.7367 6.80414 14.4379 7.53669 13.9309C7.86951 13.7005 7.92363 13.6484 7.90565 13.5761C7.89169 13.52 7.80279 13.4864 7.72648 13.5085C7.65728 13.5285 7.27132 13.7679 6.91601 14.0111C5.87849 14.7213 5.22192 15.4734 5.04643 16.1528C5.00266 16.3222 5.0022 16.5993 5.04545 16.731C5.09162 16.8715 5.21908 17.0715 5.32195 17.1649C5.60237 17.4193 6.06409 17.4559 6.65103 17.2702C7.36464 17.0445 8.34011 16.4737 9.0758 15.8513C9.96592 15.0983 10.9941 13.8574 11.6635 12.7281C11.7866 12.5205 11.8627 12.4364 11.9804 12.3783L12.0807 12.3288L13.6064 12.3276C14.6524 12.3267 15.1811 12.3199 15.2879 12.3058C15.5821 12.267 15.9676 12.1047 16.198 11.9228C16.4378 11.7334 16.3982 11.5841 16.0975 11.544C16.0467 11.5372 15.2053 11.5306 14.2279 11.5294C12.5582 11.5274 12.4477 11.5254 12.4029 11.4957C12.3199 11.4409 12.3355 11.3832 12.5512 10.946C12.659 10.7275 12.8881 10.2486 13.0602 9.88165C13.548 8.84176 13.6483 8.64101 13.7799 8.44062C14.0435 8.03914 14.3083 7.85634 14.7058 7.80142C14.9038 7.77406 15.0805 7.77776 15.5199 7.81842C17.4385 7.99591 18.7868 7.76517 19.2093 7.18707C19.3872 6.94359 19.4116 6.7372 19.2706 6.66915C19.2582 6.66315 19.2501 6.6579 19.2414 6.654C19.1994 6.63508 19.1432 6.648 18.5042 6.76074C17.9714 6.85472 17.8447 6.86513 17.2654 6.86259C16.663 6.85992 16.2486 6.83553 15.2196 6.74216Z" fill="white"/>
<path fill-rule="evenodd" clip-rule="evenodd" d="M18.566 1.89873C16.9069 0.796896 15.0588 0.166536 13.0502 0.0174342C12.7283 -0.00646791 11.7379 -0.00560351 11.4156 0.0188615C9.13432 0.192046 6.9302 1.0556 5.16619 2.46735C4.62958 2.8968 3.91529 3.59075 3.50895 4.0774C2.99174 4.69684 2.50861 5.40848 2.16428 6.05805C1.34514 7.60337 1.01473 8.39121 0.739697 9.45487C0.18941 11.583 0.263845 13.9 0.949565 15.9886C1.97953 19.1256 4.30453 21.6865 7.30913 22.9933C8.13656 23.3532 8.87094 23.5751 9.89062 23.7733L10.1597 23.8256C10.1597 23.8256 11.4235 23.989 12.1831 23.9992C13.2337 24.0132 14.1022 23.8464 14.7646 23.7154C16.7463 23.3234 18.6562 22.3613 20.1767 20.9891C20.354 20.8291 20.8795 20.3022 21.0342 20.1294C22.1187 18.9174 22.9114 17.5419 23.4264 15.9782C24.1948 13.6449 24.191 11.0119 23.416 8.71107C23.3787 8.6005 23.2725 8.28389 23.1798 8.00747C22.9455 7.30834 22.7961 6.94245 22.5108 6.3691C21.6118 4.56245 20.2455 3.0141 18.566 1.89873ZM4.32724 3.55384C6.27898 1.59278 8.76152 0.460799 11.5551 0.258084C11.8955 0.233377 12.9344 0.250625 13.2994 0.287052C15.4034 0.496944 17.3305 1.2475 18.9906 2.5036C19.4722 2.86796 19.7229 3.09009 20.2108 3.58488C20.6271 4.00702 20.9015 4.32255 21.2162 4.74078C21.56 5.19774 21.5648 5.22277 21.2335 4.83125C20.0597 3.44392 18.4805 2.29945 16.8141 1.62826C15.1233 0.947285 13.5252 0.705489 11.3558 0.802324C10.2413 0.852078 9.25109 1.036 8.20763 1.38705C6.71315 1.88982 5.39807 2.66649 4.14691 3.78524C3.86952 4.03327 3.93971 3.94321 4.32724 3.55384ZM10.987 1.14495C11.234 1.11082 11.4264 1.09134 11.8741 1.0551C12.6303 0.993883 14.0276 1.1963 15.0954 1.5217C18.461 2.54738 21.1731 5.12348 22.3903 8.45088C23.3947 11.1964 23.2976 14.2695 22.1219 16.9418C21.9639 17.301 21.538 17.9736 21.1545 18.4696C20.0662 19.8773 18.807 20.9197 17.2464 21.7047C15.8603 22.402 14.4505 22.7777 12.8608 22.8734C11.5051 22.955 10.0307 22.7549 8.7145 22.3108C5.63234 21.2709 3.13423 18.9301 1.89098 15.917C1.60837 15.2321 1.39306 14.1844 1.31895 13.1337C1.29337 12.7709 1.29345 11.9665 1.31913 11.6059C1.41344 10.2813 1.71261 9.03422 2.21619 7.86675C3.78128 4.2383 7.12047 1.6792 10.987 1.14495ZM2.70052 5.80104C3.92751 4.07102 5.5593 2.75323 7.50981 1.9172C7.6516 1.85641 7.77635 1.80649 7.78704 1.80623C7.7977 1.80599 7.67211 1.87217 7.50796 1.9533C6.59409 2.40497 5.82725 2.91494 5.02665 3.60345C4.75832 3.83423 4.07022 4.52784 3.83851 4.80109C2.6139 6.24535 1.78453 7.88103 1.35136 9.70615C1.20144 10.3378 1.06907 11.3126 1.05683 11.8751L1.05394 12.0079L1.03333 11.8571C1.01158 11.698 1.04035 10.8368 1.08067 10.4399C1.19643 9.3006 1.49451 8.13714 1.93562 7.10285C2.09987 6.7177 2.33877 6.31111 2.70052 5.80104ZM18.0614 2.63458C17.6331 2.35855 17.3898 2.2186 16.955 1.99837C16.748 1.8935 16.5852 1.80726 16.5933 1.80674C16.6283 1.80448 17.2071 2.06592 17.5454 2.23679C19.9927 3.47287 21.8987 5.55054 22.9306 8.10694C23.154 8.66023 23.358 9.63249 23.4497 10.5806C23.4836 10.9307 23.4837 12.1641 23.4499 12.5306C23.4057 13.0099 23.2587 13.9667 23.2331 13.9409C23.2284 13.9361 23.2382 13.8114 23.2548 13.6636C23.3655 12.6829 23.3441 11.5844 23.1952 10.6108C22.9079 8.73129 22.1779 6.97275 21.0548 5.45443C20.7123 4.99134 20.197 4.39417 19.8849 4.09862C19.8097 4.02738 19.6898 3.9135 19.6186 3.84557C19.2426 3.48718 18.5571 2.95408 18.0614 2.63458ZM0.893928 9.93106C0.887569 9.94708 0.882845 9.94232 0.881888 9.9189C0.881031 9.89771 0.885735 9.88585 0.892354 9.89252C0.898972 9.8992 0.899689 9.91655 0.893928 9.93106ZM0.692492 13.6563C0.564753 12.5382 0.609147 11.3771 0.824637 10.2008C0.848718 10.0693 0.871702 9.97157 0.875689 9.98363C0.879675 9.99569 0.86919 10.1259 0.852405 10.273C0.686233 11.7284 0.8116 13.2816 1.20983 14.7017C1.35798 15.2299 1.76428 16.4202 1.93781 16.8342C2.1156 17.2584 2.44271 17.9129 2.65534 18.2699C3.80354 20.1978 5.41395 21.7106 7.37852 22.7066C7.60306 22.8205 7.77952 22.9136 7.77063 22.9136C7.74434 22.9136 7.25688 22.7011 6.98938 22.5731C6.23009 22.2095 5.40578 21.6789 4.72764 21.117C3.89917 20.4307 3.11858 19.5627 2.51774 18.6598C1.52981 17.1753 0.896062 15.4379 0.692492 13.6563ZM22.5719 16.6358C23.2382 15.2856 23.6521 13.6637 23.7197 12.1386L23.7344 11.8069L23.7494 12.028C23.7909 12.6417 23.7022 13.727 23.5433 14.5509C22.8884 17.945 20.6775 20.8898 17.6052 22.46C17.2816 22.6254 16.6889 22.8945 16.6517 22.893C16.6444 22.8927 16.8088 22.804 17.0171 22.6959C17.6112 22.3876 18.0161 22.1412 18.4977 21.7948C19.7916 20.8644 20.8912 19.6652 21.7024 18.3001C21.8491 18.0532 22.2701 17.2475 22.5719 16.6358ZM4.448 20.2252C4.06021 19.8189 3.55422 19.2028 3.35394 18.8931L3.30845 18.8227L3.36519 18.8847C3.3964 18.9188 3.4937 19.0317 3.58141 19.1356C3.8092 19.4055 4.29564 19.9046 4.59806 20.1788C6.36359 21.7793 8.58373 22.7894 10.9372 23.0628C11.916 23.1765 13.0209 23.1547 14.017 23.0018C16.0902 22.6838 18.0762 21.7665 19.6883 20.3826C19.798 20.2885 19.9543 20.1478 20.0357 20.0699C20.3094 19.8084 20.104 20.0455 19.7549 20.3943C19.3533 20.7955 19.0996 21.0216 18.7116 21.324C17.2081 22.4958 15.4283 23.268 13.5685 23.5552C12.9953 23.6438 12.7239 23.6655 12.193 23.6655C11.6426 23.6654 11.3249 23.6392 10.7546 23.5466C8.34057 23.1546 6.13564 21.9933 4.448 20.2252ZM16.5587 22.9331C16.5477 22.9331 16.5522 22.9243 16.5686 22.9136C16.5851 22.9029 16.6075 22.8941 16.6185 22.8941C16.6294 22.8941 16.6249 22.9029 16.6085 22.9136C16.592 22.9243 16.5696 22.9331 16.5587 22.9331Z" fill="white"/>
</svg>
