<svg width="17" height="14" viewBox="0 0 17 14" fill="none" xmlns="http://www.w3.org/2000/svg">
<path d="M14.7303 3.74149C14.7405 3.88362 14.7405 4.02577 14.7405 4.1679C14.7405 8.5029 11.441 13.4978 5.41053 13.4978C3.55266 13.4978 1.82678 12.9597 0.375 12.0258C0.638969 12.0562 0.89275 12.0664 1.16687 12.0664C2.69984 12.0664 4.11103 11.5486 5.23794 10.6654C3.79631 10.6349 2.58819 9.69074 2.17194 8.39124C2.375 8.42168 2.57803 8.44199 2.79125 8.44199C3.08566 8.44199 3.38009 8.40137 3.65419 8.33034C2.15166 8.02574 1.02472 6.70596 1.02472 5.11205V5.07146C1.46125 5.31512 1.96891 5.4674 2.50694 5.48768C1.62369 4.89884 1.04503 3.89377 1.04503 2.75671C1.04503 2.14759 1.20744 1.58921 1.49172 1.1019C3.10594 3.09174 5.53234 4.39121 8.25312 4.53337C8.20237 4.28971 8.17191 4.03593 8.17191 3.78212C8.17191 1.97499 9.63384 0.50293 11.4511 0.50293C12.3952 0.50293 13.248 0.898867 13.847 1.53846C14.5881 1.39634 15.2988 1.12221 15.9282 0.746586C15.6846 1.50802 15.1668 2.14762 14.4866 2.55368C15.1465 2.48265 15.7861 2.29987 16.3749 2.04609C15.9283 2.6958 15.3699 3.27446 14.7303 3.74149Z" fill="white" fill-opacity="0.7"/>
</svg>
