<svg width="23" height="21" viewBox="0 0 23 21" fill="none" xmlns="http://www.w3.org/2000/svg">
<path d="M10.5377 9.89375C12.3377 7.46562 16.9127 1.90625 21.0939 1.90625C21.0939 6.0875 15.5345 10.6625 13.1064 12.4625M12.4688 7.49358C13.739 8.21048 14.7893 9.26079 15.5062 10.5311M1.875 19.25H8.625C9.58918 19.25 10.5317 18.9641 11.3334 18.4284C12.1351 17.8927 12.7599 17.1314 13.1289 16.2406C13.4979 15.3498 13.5944 14.3696 13.4063 13.4239C13.2182 12.4783 12.7539 11.6096 12.0721 10.9279C11.3904 10.2461 10.5217 9.78177 9.57607 9.59367C8.63041 9.40557 7.65021 9.50211 6.75942 9.87109C5.86863 10.2401 5.10726 10.8649 4.57159 11.6666C4.03591 12.4683 3.75 13.4108 3.75 14.375C3.75 17.75 1.875 19.25 1.875 19.25Z" stroke="white" stroke-opacity="0.5" stroke-width="2" stroke-linecap="round" stroke-linejoin="round"/>
</svg>
