<svg width="24" height="17" viewBox="0 0 24 17" fill="none" xmlns="http://www.w3.org/2000/svg">
<path d="M8.75 4.75C8.75 3.95435 9.06607 3.19129 9.62868 2.62868C10.1913 2.06607 10.9544 1.75 11.75 1.75C12.5456 1.75 13.3087 2.06607 13.8713 2.62868C14.4339 3.19129 14.75 3.95435 14.75 4.75L1.55 14.65C1.42407 14.7444 1.33105 14.8761 1.28411 15.0264C1.23718 15.1766 1.23871 15.3378 1.28849 15.4872C1.33827 15.6365 1.43377 15.7664 1.56147 15.8584C1.68917 15.9505 1.84259 16 2 16H21.5C21.6574 16 21.8108 15.9505 21.9385 15.8584C22.0662 15.7664 22.1617 15.6365 22.2115 15.4872C22.2613 15.3378 22.2628 15.1766 22.2159 15.0264C22.169 14.8761 22.0759 14.7444 21.95 14.65L11.75 7" stroke="white"  stroke-width="2" stroke-linecap="round" stroke-linejoin="round"/>
</svg>
