<svg width="26" height="20" viewBox="0 0 26 20" fill="none" xmlns="http://www.w3.org/2000/svg">
<path d="M19 9.25H21.5406C21.679 9.25031 21.8148 9.21183 21.9324 9.13892C22.0501 9.06601 22.1449 8.96159 22.2063 8.8375L23.9313 5.3875C24.0167 5.21472 24.0333 5.0159 23.9776 4.83136C23.9219 4.64682 23.798 4.49038 23.6313 4.39375L19 1.75M19 1.75V17.5C19 17.6989 18.921 17.8897 18.7803 18.0303C18.6397 18.171 18.4489 18.25 18.25 18.25H7.75C7.55109 18.25 7.36032 18.171 7.21967 18.0303C7.07902 17.8897 7 17.6989 7 17.5L7.0002 1.75M19 1.75H16C16 2.54565 15.6839 3.30871 15.1213 3.87132C14.5587 4.43393 13.7956 4.75 13 4.75C12.2044 4.75 11.4413 4.43393 10.8787 3.87132C10.3161 3.30871 10 2.54565 10 1.75H7.0002M7.0002 9.25H4.45957C4.32116 9.25031 4.18544 9.21183 4.06779 9.13892C3.95014 9.06601 3.85527 8.96159 3.79395 8.8375L2.06895 5.3875C1.98349 5.21472 1.96693 5.0159 2.02264 4.83136C2.07835 4.64682 2.20215 4.49038 2.36895 4.39375L7.0002 1.75" stroke="white"  stroke-width="2" stroke-linecap="round" stroke-linejoin="round"/>
</svg>
