<svg width="21" height="22" viewBox="0 0 21 22" fill="none" xmlns="http://www.w3.org/2000/svg">
<path d="M19.125 15.4345V6.56574C19.1243 6.43222 19.0884 6.30125 19.0209 6.18603C18.9534 6.07081 18.8567 5.97543 18.7406 5.90949L10.8656 1.45637C10.7545 1.39219 10.6284 1.3584 10.5 1.3584C10.3716 1.3584 10.2455 1.39219 10.1344 1.45637L2.25937 5.90949C2.14327 5.97543 2.0466 6.07081 1.97911 6.18603C1.91163 6.30125 1.87572 6.43222 1.875 6.56574V15.4345C1.87572 15.568 1.91163 15.699 1.97911 15.8142C2.0466 15.9294 2.14327 16.0248 2.25937 16.0907L10.1344 20.5439C10.2455 20.608 10.3716 20.6418 10.5 20.6418C10.6284 20.6418 10.7545 20.608 10.8656 20.5439L18.7406 16.0907C18.8567 16.0248 18.9534 15.9294 19.0209 15.8142C19.0884 15.699 19.1243 15.568 19.125 15.4345V15.4345Z" stroke="white" stroke-width="2" stroke-linecap="round" stroke-linejoin="round"/>
</svg>
